<svg xmlns="http://www.w3.org/2000/svg" xmlns:xlink="http://www.w3.org/1999/xlink" width="2880" height="1400"><defs><linearGradient id="c" x1="52.254%" x2="52.254%" y1="64.645%" y2="-159.482%"><stop offset="0%" stop-color="#FBFBFC"/><stop offset="100%" stop-color="#94C4FF"/></linearGradient><linearGradient id="d" x1="3.29%" x2="364.95%" y1="44.106%" y2="44.106%"><stop offset="0%" stop-color="#FBFBFC"/><stop offset="100%" stop-color="#94C4FF"/></linearGradient><linearGradient id="e" x1="32.679%" x2="32.679%" y1="50%" y2="-190.389%"><stop offset="0%" stop-color="#FBFBFC"/><stop offset="100%" stop-color="#94C4FF"/></linearGradient><path id="a" d="M0 0h2880v1400H0z"/></defs><g fill="none" fill-rule="evenodd"><mask id="b" fill="#fff"><use xlink:href="#a"/></mask><use fill="#FBFBFC" xlink:href="#a"/><g fill-rule="nonzero" mask="url(#b)"><path fill="url(#c)" d="M682.584 537.6l-172.816-99.764c-105.437-59.877-234.745-59.237-339.584 1.68C64.748 501.616.017 614.846 0 737.212v982.8l682.584-394.184V537.6z" transform="translate(416 -28)"/><path fill="url(#d)" d="M1196.692 46.312c-106.939-61.741-238.693-61.741-345.632 0L170.1 439.6c104.84-60.917 234.147-61.557 339.584-1.68 0 0 577.864 335.216 663.88 383.236a261.587 261.587 0 0063.336 24.808c122.472 31.528 214.2-11.06 553.476-206.948L2006.76 514.08 1196.692 46.312z" transform="translate(416 -28)"/><path fill="url(#e)" d="M1831.34 709.8c-339.276 196-422.016 254.044-455.952 375.872a262.081 262.081 0 00-10.192 67.2c-1.428 98.532 0 567.028 0 567.028l172.816 99.764c105.437 59.877 234.745 59.237 339.584-1.68 105.372-62.102 170.072-175.273 170.128-297.584V584.864L1831.34 709.8z" transform="translate(416 -28)"/></g></g></svg>