<svg xmlns="http://www.w3.org/2000/svg" width="72" height="72"><path d="M65.935 50A5.065 5.065 0 0171 55.065v10.87A5.065 5.065 0 0165.935 71H6.065A5.065 5.065 0 011 65.935v-10.87A5.065 5.065 0 016.065 50h59.87zM60.5 57a3.5 3.5 0 100 7 3.5 3.5 0 000-7zm5.435-31.5A5.065 5.065 0 0171 30.565v10.87a5.065 5.065 0 01-5.065 5.065H6.065A5.065 5.065 0 011 41.435v-10.87A5.065 5.065 0 016.065 25.5h59.87zm-5.435 7a3.5 3.5 0 100 7 3.5 3.5 0 000-7zM65.935 1A5.065 5.065 0 0171 6.065v10.87A5.065 5.065 0 0165.935 22H6.065A5.065 5.065 0 011 16.935V6.065A5.065 5.065 0 016.065 1h59.87zM60.5 8a3.5 3.5 0 100 7 3.5 3.5 0 000-7z" fill="#FFF" fill-rule="evenodd"/></svg>