<svg xmlns="http://www.w3.org/2000/svg" xmlns:xlink="http://www.w3.org/1999/xlink" width="1536" height="1200"><defs><linearGradient id="c" x1="52.254%" x2="52.254%" y1="64.645%" y2="-159.482%"><stop offset="0%" stop-color="#FBFBFC"/><stop offset="100%" stop-color="#94C4FF"/></linearGradient><linearGradient id="d" x1="3.29%" x2="364.95%" y1="44.106%" y2="44.106%"><stop offset="0%" stop-color="#FBFBFC"/><stop offset="100%" stop-color="#94C4FF"/></linearGradient><linearGradient id="e" x1="32.679%" x2="32.679%" y1="50%" y2="-190.389%"><stop offset="0%" stop-color="#FBFBFC"/><stop offset="100%" stop-color="#94C4FF"/></linearGradient><path id="a" d="M0 0h1536v1200H0z"/></defs><g fill="none" fill-rule="evenodd"><mask id="b" fill="#fff"><use xlink:href="#a"/></mask><use fill="#FBFBFC" xlink:href="#a"/><g fill-rule="nonzero" mask="url(#b)"><path fill="url(#c)" d="M436.747 344.064l-110.575-63.849c-67.463-38.321-150.2-37.912-217.28 1.075C41.427 321.034.01 393.502 0 471.816v628.992L436.747 848.53V344.064z" transform="translate(112.8 152.8)"/><path fill="url(#d)" d="M765.696 29.64c-68.424-39.515-152.726-39.515-221.15 0l-435.71 251.704c67.081-38.987 149.818-39.397 217.281-1.075 0 0 369.743 214.538 424.78 245.27a167.285 167.285 0 0040.525 15.878c78.363 20.178 137.054-7.078 354.138-132.447l138.452-79.959L765.696 29.64z" transform="translate(112.8 152.8)"/><path fill="url(#e)" d="M1171.771 454.272C954.688 579.712 901.747 616.86 880.033 694.83a167.76 167.76 0 00-6.52 43.008c-.915 63.06 0 362.898 0 362.898l110.574 63.849c67.464 38.321 150.2 37.912 217.281-1.075 67.422-39.745 108.82-112.175 108.855-190.454V374.313l-138.452 79.959z" transform="translate(112.8 152.8)"/></g></g></svg>