<svg xmlns="http://www.w3.org/2000/svg" xmlns:xlink="http://www.w3.org/1999/xlink" width="2048" height="1200"><defs><linearGradient id="c" x1="52.254%" x2="52.254%" y1="64.645%" y2="-159.482%"><stop offset="0%" stop-color="#FBFBFC"/><stop offset="100%" stop-color="#94C4FF"/></linearGradient><linearGradient id="d" x1="3.29%" x2="364.95%" y1="44.106%" y2="44.106%"><stop offset="0%" stop-color="#FBFBFC"/><stop offset="100%" stop-color="#94C4FF"/></linearGradient><linearGradient id="e" x1="32.679%" x2="32.679%" y1="50%" y2="-190.389%"><stop offset="0%" stop-color="#FBFBFC"/><stop offset="100%" stop-color="#94C4FF"/></linearGradient><path id="a" d="M0 0h2048v1200H0z"/></defs><g fill="none" fill-rule="evenodd"><mask id="b" fill="#fff"><use xlink:href="#a"/></mask><use fill="#FBFBFC" xlink:href="#a"/><g fill-rule="nonzero" mask="url(#b)"><path fill="url(#c)" d="M546.067 430.08l-138.253-79.811c-84.35-47.902-187.795-47.39-271.667 1.344C51.798 401.293.013 491.878 0 589.77v786.24l546.067-315.348V430.08z" transform="translate(204.8 146)"/><path fill="url(#d)" d="M957.354 37.05c-85.552-49.393-190.955-49.393-276.506 0L136.08 351.68c83.871-48.734 187.318-49.246 271.667-1.344 0 0 462.291 268.173 531.104 306.589a209.205 209.205 0 0050.669 19.846c97.978 25.223 171.36-8.848 442.78-165.558l173.108-99.949L957.354 37.05z" transform="translate(204.8 146)"/><path fill="url(#e)" d="M1465.072 567.84c-271.42 156.8-337.613 203.235-364.762 300.698a209.668 209.668 0 00-8.153 53.76c-1.143 78.825 0 453.622 0 453.622l138.253 79.811c84.35 47.902 187.795 47.39 271.667-1.344 84.298-49.681 136.057-140.218 136.102-238.067V467.891l-173.107 99.949z" transform="translate(204.8 146)"/></g></g></svg>