<svg xmlns="http://www.w3.org/2000/svg" width="94" height="94"><g transform="translate(15 9)" stroke-width="2" fill="none" fill-rule="evenodd"><path d="M3.333 52v20.667H24m-20.667-36V3.333H60v69.334H39.333" stroke="#9EA2AE"/><circle cx="3.333" cy="3.333" r="2.333" fill="#2E5BDB" stroke="#FFF" transform="matrix(-1 0 0 1 6.667 0)"/><circle cx="60" cy="3.333" r="2.333" fill="#2EDBAF" stroke="#FFF"/><circle cx="60" cy="72.667" r="2.333" fill="#2E5BDB" stroke="#FFF" transform="matrix(1 0 0 -1 0 145.333)"/><circle cx="3.333" cy="72.667" r="2.333" fill="#2E5BDB" stroke="#FFF" transform="rotate(180 3.333 72.667)"/><path d="M28.667 30.333h20m-20-4h12.666M14 26l4 4 6-6m4.667 17h20m-20 4h20M14 40.667l4 4 6-6m4.667 17h20m-20 4h20M14 55.333l4 4 6-6" stroke="#2E5BDB"/></g></svg>