<svg xmlns="http://www.w3.org/2000/svg" xmlns:xlink="http://www.w3.org/1999/xlink" width="2560" height="800"><defs><linearGradient id="c" x1="52.254%" x2="52.254%" y1="64.645%" y2="-159.482%"><stop offset="0%" stop-color="#FBFBFC"/><stop offset="100%" stop-color="#94C4FF"/></linearGradient><linearGradient id="d" x1="3.29%" x2="364.95%" y1="44.106%" y2="44.106%"><stop offset="0%" stop-color="#FBFBFC"/><stop offset="100%" stop-color="#94C4FF"/></linearGradient><linearGradient id="e" x1="32.679%" x2="32.679%" y1="50%" y2="-190.389%"><stop offset="0%" stop-color="#FBFBFC"/><stop offset="100%" stop-color="#94C4FF"/></linearGradient><path id="a" d="M0 0h2560v800H0z"/></defs><g fill="none" fill-rule="evenodd"><mask id="b" fill="#fff"><use xlink:href="#a"/></mask><use fill="#FBFBFC" xlink:href="#a"/><g fill-rule="nonzero" mask="url(#b)"><path fill="url(#c)" d="M341.292 268.8l-86.408-49.882c-52.718-29.939-117.372-29.619-169.792.84C32.374 250.808.008 307.423 0 368.606v491.4l341.292-197.092V268.8z" transform="translate(768 85)"/><path fill="url(#d)" d="M598.346 23.156c-53.47-30.87-119.347-30.87-172.816 0L85.05 219.8c52.42-30.459 117.074-30.779 169.792-.84 0 0 288.932 167.608 331.94 191.618a130.773 130.773 0 0031.668 12.404c61.236 15.764 107.1-5.53 276.738-103.474l108.192-62.468L598.346 23.156z" transform="translate(768 85)"/><path fill="url(#e)" d="M915.67 354.9c-169.638 98-211.008 127.022-227.976 187.936a131.034 131.034 0 00-5.096 33.6c-.714 49.266 0 283.514 0 283.514l86.408 49.882c52.718 29.939 117.372 29.619 169.792-.84 52.686-31.05 85.036-87.637 85.064-148.792V292.432L915.67 354.9z" transform="translate(768 85)"/></g></g></svg>