<svg xmlns="http://www.w3.org/2000/svg" width="94" height="94"><g transform="translate(5 11)" stroke-width="2" fill="none" fill-rule="evenodd"><path stroke="#9EA2AE" d="M56.675 2.667c-9.522 0-14.966 6.191-14.966 6.191-5.713-4.83-11.28-6.111-15.578-6.111-4.848 0-8.08 1.63-8.08 1.63-.41.176-.816.364-1.216.563C10.82 7.925 6.663 13.424 5.139 19.908c-2.029 8.628 2.8 16.337 8.357 22.457 9.02 9.935 18.77 19.32 28.125 28.968 10.896-11.12 21.569-22.315 31.874-33.985 4.87-5.516 6.562-13.29 3.947-20.16a20.18 20.18 0 00-.444-1.08C72.505 5.958 64.442 3.98 64.442 3.98c-2.824-.938-5.42-1.314-7.767-1.314"/><g stroke="#2E5BDB"><path fill="#FFF" d="M48.233 19.534l9.9 9.9-20.18 20.18h-9.9v-9.9l20.18-20.18z"/><path d="M49.331 31.394l2.828 2.828m-8.485 2.828l2.828 2.829m12.183-23.726l-7.07 7.071m9.899-4.242l-7.071 7.07M28.468 49.2L17.154 60.512M54.443 11.91l11.313 11.314"/></g><circle cx="70" cy="7.333" r="2.333" fill="#2EDBAF" stroke="#FFF"/></g></svg>