<svg xmlns="http://www.w3.org/2000/svg" width="94" height="94"><g transform="translate(10.5 13.833)" stroke-width="2" fill="none" fill-rule="evenodd"><path stroke="#9EA2AE" d="M4 14.667h64.667M0 65.333h8M4 0v66m60.667-.667h8M68.667 0v66"/><circle cx="68.667" cy="14.667" r="2.333" fill="#2EDBAF" stroke="#FFF"/><circle cx="4" cy="14.667" r="2.333" fill="#2E5BDB" stroke="#FFF"/><g stroke="#2E5BDB"><path fill="#FFF" d="M55 5v48.333a6.982 6.982 0 01-2.05 4.95 6.978 6.978 0 01-4.95 2.05 6.978 6.978 0 01-4.95-2.05 6.982 6.982 0 01-2.05-4.95h0V5h14z"/><path d="M50 23.667h4M50 33h4m-4 9.333h4"/></g><g stroke="#2E5BDB"><path fill="#FFF" d="M31.667 5v48.333a6.982 6.982 0 01-2.05 4.95 6.978 6.978 0 01-4.95 2.05 6.978 6.978 0 01-4.95-2.05 6.982 6.982 0 01-2.05-4.95h0V5h14z"/><path d="M27 33h4m-4 9.333h4m-4-18.666h4"/></g></g></svg>