<svg xmlns="http://www.w3.org/2000/svg" xmlns:xlink="http://www.w3.org/1999/xlink" width="720" height="1200"><defs><linearGradient id="c" x1="52.254%" x2="52.254%" y1="64.645%" y2="-159.482%"><stop offset="0%" stop-color="#FBFBFC"/><stop offset="100%" stop-color="#94C4FF"/></linearGradient><linearGradient id="d" x1="3.29%" x2="364.95%" y1="44.106%" y2="44.106%"><stop offset="0%" stop-color="#FBFBFC"/><stop offset="100%" stop-color="#94C4FF"/></linearGradient><path id="a" d="M0 0h720v1200H0z"/></defs><g fill="none" fill-rule="evenodd"><mask id="b" fill="#fff"><use xlink:href="#a"/></mask><use fill="#FBFBFC" xlink:href="#a"/><g fill-rule="nonzero" mask="url(#b)"><path fill="url(#c)" d="M436.854 344.064l-110.602-63.849c-67.48-38.321-150.237-37.912-217.334 1.075C41.438 321.034.01 393.502 0 471.816v628.992L436.854 848.53V344.064z" transform="translate(-46 342)"/><path fill="url(#d)" d="M765.883 29.64c-68.441-39.515-152.764-39.515-221.205 0L108.864 281.344c67.097-38.987 149.854-39.397 217.334-1.075 0 0 369.833 214.538 424.883 245.27a167.356 167.356 0 0040.535 15.878c78.382 20.178 137.088-7.078 354.225-132.447l138.485-79.959L765.883 29.64z" transform="translate(-46 342)"/></g></g></svg>