<svg xmlns="http://www.w3.org/2000/svg" width="72" height="72"><path d="M65.935 49.5c1.537 0 2.928.623 3.935 1.63a5.552 5.552 0 011.623 3.648l.007.287v10.87a5.547 5.547 0 01-1.63 3.935 5.552 5.552 0 01-3.648 1.623l-.287.007H6.065a5.547 5.547 0 01-3.935-1.63 5.552 5.552 0 01-1.623-3.648L.5 65.935v-10.87c0-1.537.623-2.928 1.63-3.935a5.552 5.552 0 013.648-1.623l.287-.007h59.87zm-5.435 8a2.99 2.99 0 00-2.121.879A2.99 2.99 0 0057.5 60.5c0 .828.336 1.578.879 2.121a2.99 2.99 0 002.121.879 2.99 2.99 0 002.121-.879A2.99 2.99 0 0063.5 60.5a2.99 2.99 0 00-.879-2.121A2.99 2.99 0 0060.5 57.5zM65.935 25c1.537 0 2.928.623 3.935 1.63a5.552 5.552 0 011.623 3.648l.007.287v10.87a5.547 5.547 0 01-1.63 3.935 5.552 5.552 0 01-3.648 1.623l-.287.007H6.065a5.547 5.547 0 01-3.935-1.63 5.552 5.552 0 01-1.623-3.648L.5 41.435v-10.87c0-1.537.623-2.928 1.63-3.935a5.552 5.552 0 013.648-1.623L6.065 25h59.87zM60.5 33a2.99 2.99 0 00-2.121.879A2.99 2.99 0 0057.5 36c0 .828.336 1.578.879 2.121A2.99 2.99 0 0060.5 39a2.99 2.99 0 002.121-.879A2.99 2.99 0 0063.5 36a2.99 2.99 0 00-.879-2.121A2.99 2.99 0 0060.5 33zM65.935.5c1.537 0 2.928.623 3.935 1.63a5.552 5.552 0 011.623 3.648l.007.287v10.87a5.547 5.547 0 01-1.63 3.935 5.552 5.552 0 01-3.648 1.623l-.287.007H6.065a5.547 5.547 0 01-3.935-1.63 5.552 5.552 0 01-1.623-3.648L.5 16.935V6.065c0-1.537.623-2.928 1.63-3.935A5.552 5.552 0 015.778.507L6.065.5h59.87zm-5.435 8a2.99 2.99 0 00-2.121.879A2.99 2.99 0 0057.5 11.5c0 .828.336 1.578.879 2.121a2.99 2.99 0 002.121.879 2.99 2.99 0 002.121-.879A2.99 2.99 0 0063.5 11.5a2.99 2.99 0 00-.879-2.121A2.99 2.99 0 0060.5 8.5z" fill="#FFF" stroke="#D8DADF" fill-rule="evenodd"/></svg>