<svg xmlns="http://www.w3.org/2000/svg" width="70" height="70"><g transform="translate(14.2 5)" fill="none" fill-rule="evenodd"><path stroke="#2E5BDB" stroke-linejoin="round" stroke-width="2.4" d="M13.6 4.8a4.8 4.8 0 00-4.8 4.8v11.2h0m24-16a4.8 4.8 0 014.8 4.8v11.2h0"/><circle cx="29.6" cy="4" r="3.2" fill="#2E5BDB" stroke="#FFF" stroke-width="1.6"/><circle cx="16.8" cy="4" r="3.2" fill="#2E5BDB" stroke="#FFF" stroke-width="1.6"/><path stroke="#9EA2AE" stroke-width="1.6" d="M4 48c0 5.302 4.298 9.6 9.6 9.6s9.6-4.298 9.6-9.6m0-12v12M4 42.4V48"/><path stroke="#2E5BDB" stroke-width="2.4" d="M8.8 20.8c0 7.953 6.447 14.4 14.4 14.4s14.4-6.447 14.4-14.4"/><circle cx="23.2" cy="35.2" r="3.2" fill="#2EDBAF" stroke="#FFF" stroke-width="1.6" transform="rotate(180 23.2 35.2)"/><circle cx="4" cy="41.6" r="3.2" fill="#FFF" stroke="#9EA2AE" stroke-width="1.6"/></g></svg>