<svg xmlns="http://www.w3.org/2000/svg" width="94" height="94"><g fill="none" fill-rule="evenodd"><g stroke-width="2"><g transform="translate(58.167 11.167)"><path stroke="#9EA2AE" d="M21.001 24.001V3.334H.334"/><circle cx="21" cy="3.333" r="2.333" fill="#2EDBAF" stroke="#FFF"/></g><g transform="matrix(-1 0 0 1 35.5 11.167)"><path stroke="#9EA2AE" d="M21.001 24.001V3.334H.334"/><circle cx="21" cy="3.333" r="2.333" fill="#2E5BDB" stroke="#FFF"/></g><g transform="matrix(1 0 0 -1 58.167 82.5)"><path stroke="#9EA2AE" d="M21.001 24.001V3.334H.334"/><circle cx="21" cy="3.333" r="2.333" fill="#2E5BDB" stroke="#FFF"/></g><g transform="rotate(180 17.75 41.25)"><path stroke="#9EA2AE" d="M21.001 24.001V3.334H.334"/><circle cx="21" cy="3.333" r="2.333" fill="#2E5BDB" stroke="#FFF"/></g></g><path d="M27.833 37.833h16v2h-16zm18-5.333h2V55h-2zm4 5.333h16v2h-16zm-20-5.333h14v2h-14zm20 0h14v2h-14zM26.5 43.167h17.333v2H26.5zm23.333 0h17.333v2H49.833zM26.5 48.5h17.333v2H26.5zm23.333 0h17.333v2H49.833zM28.5 53.833h15.333v2H28.5zm21.333 0h15.333v2H49.833zm-18.666 5.334h8v2h-8zm23.333 0h8v2h-8z" fill="#2E5BDB"/></g></svg>