<svg xmlns="http://www.w3.org/2000/svg" xmlns:xlink="http://www.w3.org/1999/xlink" width="1440" height="780"><defs><linearGradient id="d" x1="45.88%" x2="80.883%" y1="49.178%" y2="51.154%"><stop offset="0%" stop-color="#FFF"/><stop offset="100%" stop-color="#94C4FF"/></linearGradient><linearGradient id="e" x1="49.375%" x2="49.375%" y1="140.542%" y2="3.542%"><stop offset="0%" stop-color="#FFF"/><stop offset="100%" stop-color="#94C4FF"/></linearGradient><linearGradient id="g" x1="50.444%" x2="50.444%" y1="-.349%" y2="99.651%"><stop offset="0%" stop-color="#FFF"/><stop offset="100%" stop-color="#FFF" stop-opacity="0"/></linearGradient><linearGradient id="h" x1="50.444%" x2="50.444%" y1=".5%" y2="100.5%"><stop offset="0%" stop-color="#FFF"/><stop offset="100%" stop-color="#FFF" stop-opacity="0"/></linearGradient><linearGradient id="i" x1="50.492%" x2="50.492%" y1="125.806%" y2="-3.028%"><stop offset="0%" stop-color="#FFF"/><stop offset="100%" stop-color="#94C4FF"/></linearGradient><linearGradient id="j" x1="50.675%" x2="50.675%" y1="125.308%" y2="-2.528%"><stop offset="0%" stop-color="#FFF"/><stop offset="100%" stop-color="#94C4FF"/></linearGradient><linearGradient id="k" x1="50.216%" x2="50.216%" y1="58.365%" y2="16.611%"><stop offset="0%" stop-color="#FFF"/><stop offset="100%" stop-color="#94C4FF"/></linearGradient><linearGradient id="l" x1="-.04%" x2="100.04%" y1="50.001%" y2="50.001%"><stop offset="0%" stop-color="#FFF"/><stop offset="50%" stop-color="#94C4FF" stop-opacity=".5"/><stop offset="100%" stop-color="#FFF" stop-opacity=".5"/></linearGradient><linearGradient id="m" x1="-.04%" x2="100.04%" y1="50.001%" y2="50.001%"><stop offset="0%" stop-color="#FFF"/><stop offset="50%" stop-color="#94C4FF" stop-opacity=".5"/><stop offset="100%" stop-color="#FFF" stop-opacity=".5"/></linearGradient><linearGradient id="n" x1="-.1%" x2="100.104%" y1="50%" y2="50%"><stop offset="0%" stop-color="#FFF"/><stop offset="50%" stop-color="#94C4FF" stop-opacity=".5"/><stop offset="100%" stop-color="#FFF" stop-opacity=".5"/></linearGradient><linearGradient id="o" x1="-.04%" x2="100.04%" y1="49.999%" y2="49.999%"><stop offset="0%" stop-color="#FFF"/><stop offset="50%" stop-color="#94C4FF" stop-opacity=".5"/><stop offset="100%" stop-color="#FFF" stop-opacity=".5"/></linearGradient><linearGradient id="p" x1="-.055%" x2="100.055%" y1="50%" y2="50%"><stop offset="0%" stop-color="#FFF"/><stop offset="50%" stop-color="#94C4FF" stop-opacity=".5"/><stop offset="100%" stop-color="#FFF" stop-opacity=".5"/></linearGradient><linearGradient id="q" x1="-.041%" x2="100.041%" y1="50%" y2="50%"><stop offset="0%" stop-color="#FFF"/><stop offset="50%" stop-color="#94C4FF" stop-opacity=".5"/><stop offset="100%" stop-color="#FFF" stop-opacity=".5"/></linearGradient><linearGradient id="r" x1="-.035%" x2="100.035%" y1="50%" y2="50%"><stop offset="0%" stop-color="#FFF"/><stop offset="50%" stop-color="#94C4FF" stop-opacity=".5"/><stop offset="100%" stop-color="#FFF" stop-opacity=".5"/></linearGradient><linearGradient id="s" x1="-.069%" x2="100.069%" y1="50.002%" y2="50.002%"><stop offset="0%" stop-color="#FFF"/><stop offset="50%" stop-color="#94C4FF" stop-opacity=".5"/><stop offset="100%" stop-color="#FFF" stop-opacity=".5"/></linearGradient><linearGradient id="t" x1="49.691%" x2="49.691%" y1="125.535%" y2="-2.301%"><stop offset="0%" stop-color="#FFF"/><stop offset="100%" stop-color="#94C4FF"/></linearGradient><linearGradient id="u" x1="49.083%" x2="49.083%" y1="127.085%" y2="-.684%"><stop offset="0%" stop-color="#FFF"/><stop offset="100%" stop-color="#94C4FF"/></linearGradient><linearGradient id="v" x1="49.645%" x2="49.645%" y1="125.374%" y2="-2.462%"><stop offset="0%" stop-color="#FFF" stop-opacity="0"/><stop offset="100%" stop-color="#94C4FF"/></linearGradient><linearGradient id="w" x1="-58.909%" x2="-58.909%" y1="-2485.723%" y2="-2486.549%"><stop offset="0%" stop-color="#FFF" stop-opacity="0"/><stop offset="100%" stop-color="#94C4FF"/></linearGradient><linearGradient id="x" x1="50.722%" x2="50.722%" y1="-14.382%" y2="85.349%"><stop offset="0%" stop-color="#94C4FF"/><stop offset="100%" stop-color="#FFF"/></linearGradient><linearGradient id="y" x1="-.028%" x2="100.028%" y1="50.001%" y2="50.001%"><stop offset="0%" stop-color="#FFF"/><stop offset="50%" stop-color="#94C4FF" stop-opacity=".5"/><stop offset="100%" stop-color="#FFF" stop-opacity=".5"/></linearGradient><linearGradient id="z" x1="-.031%" x2="100.031%" y1="50%" y2="50%"><stop offset="0%" stop-color="#FFF"/><stop offset="50%" stop-color="#94C4FF" stop-opacity=".5"/><stop offset="100%" stop-color="#FFF" stop-opacity=".5"/></linearGradient><linearGradient id="A" x1="-.058%" x2="100.058%" y1="50%" y2="50%"><stop offset="0%" stop-color="#FFF"/><stop offset="50%" stop-color="#94C4FF" stop-opacity=".5"/><stop offset="100%" stop-color="#FFF" stop-opacity=".5"/></linearGradient><linearGradient id="B" x1="-.04%" x2="100.04%" y1="50%" y2="50%"><stop offset="0%" stop-color="#FFF"/><stop offset="50%" stop-color="#94C4FF" stop-opacity=".5"/><stop offset="100%" stop-color="#FFF" stop-opacity=".5"/></linearGradient><linearGradient id="C" x1="-.029%" x2="100.029%" y1="50%" y2="50%"><stop offset="0%" stop-color="#FFF"/><stop offset="50%" stop-color="#94C4FF" stop-opacity=".5"/><stop offset="100%" stop-color="#FFF" stop-opacity=".5"/></linearGradient><linearGradient id="D" x1="-.046%" x2="100.046%" y1="49.998%" y2="49.998%"><stop offset="0%" stop-color="#FFF"/><stop offset="50%" stop-color="#94C4FF" stop-opacity=".5"/><stop offset="100%" stop-color="#FFF" stop-opacity=".5"/></linearGradient><linearGradient id="E" x1="49.408%" x2="49.408%" y1="13.27%" y2="89.051%"><stop offset="0%" stop-color="#2E5BDB"/><stop offset="100%" stop-color="#5B94EF"/></linearGradient><linearGradient id="F" x1="50%" x2="50%" y1="100%" y2="0%"><stop offset="0%" stop-color="#FFF"/><stop offset="50%" stop-color="#94C4FF" stop-opacity=".5"/><stop offset="100%" stop-color="#FFF"/></linearGradient><linearGradient id="G" x1="50%" x2="50%" y1="100%" y2="0%"><stop offset="0%" stop-color="#FFF"/><stop offset="50%" stop-color="#94C4FF" stop-opacity=".5"/><stop offset="100%" stop-color="#FFF"/></linearGradient><linearGradient id="H" x1="50%" x2="50%" y1="100%" y2="0%"><stop offset="0%" stop-color="#FFF"/><stop offset="50%" stop-color="#94C4FF" stop-opacity=".5"/><stop offset="100%" stop-color="#FFF"/></linearGradient><linearGradient id="I" x1="50%" x2="50%" y1="100%" y2="0%"><stop offset="0%" stop-color="#FFF"/><stop offset="50%" stop-color="#94C4FF" stop-opacity=".5"/><stop offset="100%" stop-color="#FFF"/></linearGradient><linearGradient id="J" x1="50%" x2="50%" y1="100%" y2="0%"><stop offset="0%" stop-color="#FFF"/><stop offset="50%" stop-color="#94C4FF" stop-opacity=".5"/><stop offset="100%" stop-color="#FFF"/></linearGradient><linearGradient id="K" x1="50%" x2="50%" y1="100%" y2="0%"><stop offset="0%" stop-color="#FFF"/><stop offset="50%" stop-color="#94C4FF" stop-opacity=".5"/><stop offset="100%" stop-color="#FFF"/></linearGradient><linearGradient id="L" x1="50%" x2="50%" y1="100%" y2="0%"><stop offset="0%" stop-color="#FFF"/><stop offset="50%" stop-color="#94C4FF" stop-opacity=".5"/><stop offset="100%" stop-color="#FFF"/></linearGradient><linearGradient id="M" x1="50%" x2="50%" y1="100%" y2="0%"><stop offset="0%" stop-color="#FFF"/><stop offset="50%" stop-color="#94C4FF" stop-opacity=".5"/><stop offset="100%" stop-color="#FFF"/></linearGradient><linearGradient id="N" x1="49.11%" x2="49.11%" y1="28.157%" y2="91.956%"><stop offset="0%" stop-color="#1630AD"/><stop offset="100%" stop-color="#2E5BDB"/></linearGradient><linearGradient id="O" x1="49.875%" x2="49.875%" y1="87.447%" y2="-103.058%"><stop offset="0%" stop-color="#FFF"/><stop offset="100%" stop-color="#94C4FF"/></linearGradient><linearGradient id="P" x1="50.077%" x2="50.077%" y1="97.155%" y2="-21.81%"><stop offset="0%" stop-color="#FFF"/><stop offset="100%" stop-color="#94C4FF"/></linearGradient><linearGradient id="Q" x1="50.645%" x2="50.645%" y1="91.209%" y2="-105.45%"><stop offset="0%" stop-color="#FFF"/><stop offset="100%" stop-color="#94C4FF"/></linearGradient><linearGradient id="R" x1="9.26%" x2="199.899%" y1="46.553%" y2="46.553%"><stop offset="0%" stop-color="#FFF"/><stop offset="100%" stop-color="#94C4FF"/></linearGradient><linearGradient id="S" x1="50.629%" x2="50.629%" y1="-14.611%" y2="85.187%"><stop offset="0%" stop-color="#94C4FF"/><stop offset="100%" stop-color="#FFF"/></linearGradient><linearGradient id="T" x1="50.49%" x2="50.49%" y1="-15.607%" y2="84.401%"><stop offset="0%" stop-color="#2E76E5"/><stop offset="100%" stop-color="#94C4FF"/></linearGradient><linearGradient id="U" x1="0%" x2="100%" y1="50%" y2="50%"><stop offset="0%" stop-color="#5B94EF"/><stop offset="100%" stop-color="#2E5BDB"/></linearGradient><linearGradient id="V" x1="49.513%" x2="50.506%" y1="118.58%" y2="-56.453%"><stop offset="0%" stop-color="#FFF"/><stop offset="100%" stop-color="#94C4FF"/></linearGradient><linearGradient id="W" x1="49.037%" x2="49.037%" y1="118.58%" y2="-264.306%"><stop offset="0%" stop-color="#FFF"/><stop offset="100%" stop-color="#94C4FF"/></linearGradient><linearGradient id="X" x1="49.698%" x2="49.698%" y1="93.397%" y2="-137.329%"><stop offset="0%" stop-color="#FFF"/><stop offset="100%" stop-color="#94C4FF"/></linearGradient><linearGradient id="Y" x1="49.549%" x2="49.549%" y1="101.736%" y2="-316.934%"><stop offset="0%" stop-color="#FFF"/><stop offset="97%" stop-color="#94C4FF"/></linearGradient><linearGradient id="Z" x1="50.061%" x2="50.061%" y1="76.815%" y2="-281.048%"><stop offset="0%" stop-color="#FFF"/><stop offset="52%" stop-color="#94C4FF"/></linearGradient><linearGradient id="aa" x1="50.219%" x2="50.219%" y1="46.91%" y2="5.043%"><stop offset="0%" stop-color="#FFF"/><stop offset="100%" stop-color="#94C4FF"/></linearGradient><linearGradient id="ab" x1="49.288%" x2="49.288%" y1="46.91%" y2="5.043%"><stop offset="0%" stop-color="#FFF"/><stop offset="100%" stop-color="#94C4FF"/></linearGradient><linearGradient id="ac" x1="49.716%" x2="49.716%" y1="132.392%" y2="-37.963%"><stop offset="0%" stop-color="#FFF"/><stop offset="100%" stop-color="#94C4FF"/></linearGradient><linearGradient id="ad" x1="49.559%" x2="49.559%" y1="124.422%" y2="-4.091%"><stop offset="0%" stop-color="#FFF"/><stop offset="100%" stop-color="#94C4FF"/></linearGradient><linearGradient id="ae" x1="46.163%" x2="65.384%" y1="40.5%" y2="88.118%"><stop offset="0%" stop-color="#1630AD"/><stop offset="100%" stop-color="#2E5BDB"/></linearGradient><linearGradient id="af" x1="-6.372%" x2="81.364%" y1="65.582%" y2="33.2%"><stop offset="0%" stop-color="#FFF"/><stop offset="20%" stop-color="#94C4FF"/><stop offset="44%" stop-color="#2E76E5"/><stop offset="71%" stop-color="#2E5BDB"/><stop offset="100%" stop-color="#1630AD"/></linearGradient><linearGradient id="ag" x1="-50.741%" x2="99.982%" y1="46.553%" y2="46.553%"><stop offset="0%" stop-color="#94C4FF"/><stop offset="100%" stop-color="#FFF"/></linearGradient><linearGradient id="ah" x1="91.058%" x2="41.197%" y1="45.138%" y2="51.155%"><stop offset="0%" stop-color="#FFF" stop-opacity="0"/><stop offset="100%" stop-color="#FFF"/></linearGradient><linearGradient id="ai" x1="50%" x2="50%" y1="100%" y2="0%"><stop offset="0%" stop-color="#2E5BDB"/><stop offset="100%" stop-color="#94C4FF"/></linearGradient><linearGradient id="aj" x1="50%" x2="50%" y1="100%" y2="0%"><stop offset="0%" stop-color="#2E5BDB"/><stop offset="100%" stop-color="#94C4FF"/></linearGradient><linearGradient id="ak" x1="-351.774%" x2="-352.328%" y1="-2392.31%" y2="-2392.201%"><stop offset="0%" stop-color="#FFF" stop-opacity="0"/><stop offset="100%" stop-color="#FFF"/></linearGradient><linearGradient id="al" x1="1.053%" x2="60.92%" y1="50.351%" y2="50.351%"><stop offset="0%" stop-color="#94C4FF"/><stop offset="100%" stop-color="#2E5BDB"/></linearGradient><linearGradient id="am" x1="90.854%" x2="40.965%" y1="45.369%" y2="51.058%"><stop offset="0%" stop-color="#94C4FF"/><stop offset="100%" stop-color="#507EE7"/></linearGradient><linearGradient id="an" x1="-253.421%" x2="-252.757%" y1="-7216.813%" y2="-7216.813%"><stop offset="0%" stop-color="#FFF" stop-opacity="0"/><stop offset="100%" stop-color="#FFF"/></linearGradient><linearGradient id="ao" x1="-253.421%" x2="-252.757%" y1="-7410.013%" y2="-7410.013%"><stop offset="0%" stop-color="#FFF" stop-opacity="0"/><stop offset="100%" stop-color="#FFF"/></linearGradient><linearGradient id="ap" x1="-154.91%" x2="-154.245%" y1="-7587.611%" y2="-7587.611%"><stop offset="0%" stop-color="#FFF" stop-opacity="0"/><stop offset="100%" stop-color="#FFF"/></linearGradient><linearGradient id="aq" x1="49.575%" x2="49.992%" y1="51.51%" y2="51.437%"><stop offset="0%" stop-color="#FFF" stop-opacity="0"/><stop offset="100%" stop-color="#FFF"/></linearGradient><linearGradient id="ar" x1="50.387%" x2="50.387%" y1="125.374%" y2="-2.462%"><stop offset="0%" stop-color="#FFF"/><stop offset="100%" stop-color="#94C4FF"/></linearGradient><linearGradient id="as" x1="50.444%" x2="50.444%" y1="-.303%" y2="99.697%"><stop offset="0%" stop-color="#FFF"/><stop offset="100%" stop-color="#FFF" stop-opacity="0"/></linearGradient><linearGradient id="at" x1="-15776%" x2="-15776%" y1="-2244.904%" y2="-2244.301%"><stop offset="0%" stop-color="#FFF"/><stop offset="100%" stop-color="#FFF" stop-opacity="0"/></linearGradient><linearGradient id="au" x1="49.778%" x2="49.778%" y1="-.208%" y2="99.792%"><stop offset="0%" stop-color="#FFF"/><stop offset="100%" stop-color="#FFF" stop-opacity="0"/></linearGradient><linearGradient id="av" x1="49.778%" x2="49.778%" y1=".447%" y2="100.447%"><stop offset="0%" stop-color="#FFF"/><stop offset="100%" stop-color="#FFF" stop-opacity="0"/></linearGradient><linearGradient id="aw" x1="78.794%" x2="12.803%" y1="58.919%" y2="41.773%"><stop offset="25%" stop-color="#FFF" stop-opacity="0"/><stop offset="85%" stop-color="#94C4FF"/></linearGradient><linearGradient id="ax" x1="49.998%" x2="49.998%" y1="100%" y2="0%"><stop offset="0%" stop-color="#2E5BDB"/><stop offset="0%" stop-color="#FFF"/><stop offset="58%" stop-color="#FFF" stop-opacity="0"/></linearGradient><linearGradient id="ay" x1="50%" x2="50%" y1="100%" y2="0%"><stop offset="0%" stop-color="#FFF"/><stop offset="100%" stop-color="#FFF" stop-opacity="0"/></linearGradient><linearGradient id="az" x1="50.675%" x2="50.675%" y1="59.861%" y2="17.873%"><stop offset="0%" stop-color="#FFF"/><stop offset="100%" stop-color="#94C4FF"/></linearGradient><linearGradient id="aA" x1="50.349%" x2="50.349%" y1="63.085%" y2="7.093%"><stop offset="0%" stop-color="#FFF" stop-opacity="0"/><stop offset="100%" stop-color="#94C4FF"/></linearGradient><linearGradient id="aB" x1="50.444%" x2="50.444%" y1="-.355%" y2="99.645%"><stop offset="0%" stop-color="#FFF"/><stop offset="100%" stop-color="#FFF" stop-opacity="0"/></linearGradient><linearGradient id="aC" x1="50.444%" x2="50.444%" y1=".123%" y2="100.123%"><stop offset="0%" stop-color="#FFF"/><stop offset="100%" stop-color="#FFF" stop-opacity="0"/></linearGradient><linearGradient id="aD" x1="49.558%" x2="49.558%" y1="127.397%" y2="-1.554%"><stop offset="0%" stop-color="#FFF"/><stop offset="100%" stop-color="#94C4FF"/></linearGradient><radialGradient id="b" cx="65.206%" cy="50%" r="70.848%" fx="65.206%" fy="50%" gradientTransform="matrix(.54167 0 0 1 .299 0)"><stop offset="0%" stop-color="#FEFEFF"/><stop offset="100%" stop-color="#FCFCFD"/></radialGradient><radialGradient id="f" cx="53.309%" cy="50.339%" r="50%" fx="53.309%" fy="50.339%" gradientTransform="matrix(0 1 -.54447 0 .807 -.03)"><stop offset="0%" stop-color="#94C4FF"/><stop offset="0%" stop-color="#94C4FF"/><stop offset="100%" stop-color="#FFF" stop-opacity="0"/></radialGradient><path id="a" d="M0 0h1440v780H0z"/></defs><g fill="none" fill-rule="evenodd"><mask id="c" fill="#fff"><use xlink:href="#a"/></mask><use fill="url(#b)" xlink:href="#a"/><g mask="url(#c)"><g transform="translate(600 152)"><path fill="url(#d)" fill-rule="nonzero" d="M574.022 537.728a91.214 91.214 0 01-91.82-1.102L255.848 405.928 73.73 511.124l227.116 131.154a92.219 92.219 0 0092.275 0l180.902-104.512v-.038z" opacity=".23"/><path fill="url(#e)" fill-rule="nonzero" d="M562.697 241.748c-90.755 52.218-112.798 67.724-121.843 100.294a71.528 71.528 0 00-2.66 17.938c-.38 26.3 0 151.258 0 151.258l46.137 26.604a90.946 90.946 0 0090.603-.456 92.208 92.208 0 0045.302-79.24v-249.69l-57.54 33.292z" opacity=".16"/><ellipse cx="350.403" cy="364.046" fill="url(#f)" fill-rule="nonzero" opacity=".67" rx="350.403" ry="190.783"/><g fill-rule="nonzero" transform="translate(535.865 288.075)"><ellipse cx="3.42" cy="4.523" fill="#FFF" rx="3.42" ry="3.8"/><path fill="url(#g)" d="M0 4.523h6.841v126.175H0z"/></g><g fill-rule="nonzero" transform="translate(551.067 300.237)"><ellipse cx="3.42" cy="4.523" fill="#FFF" rx="3.42" ry="3.8"/><path fill="url(#h)" d="M0 4.523h6.841v72.969H0z"/></g><path fill="url(#i)" fill-rule="nonzero" d="M553.576 253.415v61.567l-68.485-39.578-.068-78.996 53.305 30.67a30.404 30.404 0 0115.248 26.337z" opacity=".25"/><path fill="url(#j)" fill-rule="nonzero" d="M587.643 243.86v52.766l-68.5-39.578-.068-78.996 45.674 26.284a45.603 45.603 0 0122.894 39.525z" opacity=".25"/><path fill="url(#k)" fill-rule="nonzero" d="M484.901 355.001l-68.553-39.981-68.568 39.685 68.568 39.73z" opacity=".25"/><path stroke="url(#l)" stroke-width=".84" d="M622.075 513.07L141.301 235.431"/><path stroke="url(#m)" stroke-width=".84" d="M484.939 592.348L5.009 315.028"/><path stroke="url(#n)" stroke-width=".84" d="M195.853 583.728L5.001 473.348"/><path stroke="url(#o)" stroke-width=".84" d="M622.022 354.606L142.236 77.621"/><path stroke="url(#p)" stroke-width=".84" d="M621.969 275.556L278.992 77.37"/><path stroke="url(#q)" stroke-width=".84" d="M750.212 507.78L282.929 235.925"/><path stroke="url(#r)" stroke-width=".84" d="M622.106 592.386L73.562 275.442"/><path stroke="url(#s)" stroke-width=".84" d="M416.356 631.949L142.122 473.523"/><path fill="url(#t)" fill-rule="nonzero" d="M553.462 394.496l-.069 78.996-68.484 39.578.007-79.141z"/><path fill="url(#u)" fill-rule="nonzero" stroke="#FFF" stroke-width=".84" d="M592.15 456.74v39.525l-68.522 39.6v-79.148l34.34-19.762a22.805 22.805 0 0134.183 19.785z" opacity=".58"/><path fill="url(#v)" fill-rule="nonzero" d="M241.041 217.052l-.069 78.989-68.484 39.586.007-79.141z"/><path fill="url(#w)" fill-rule="nonzero" d="M210.675 196.294l-.046 79.24-68.507 39.54.008-79.21z"/><path fill="url(#x)" d="M416.341 235.925l68.575-39.646-68.575-39.555-68.561 39.57z" opacity=".5"/><path stroke="url(#y)" stroke-width=".84" d="M5.001 473.348L690.582 77.529"/><path stroke="url(#z)" stroke-width=".84" d="M73.562 592.097l617.104-356.286"/><path stroke="url(#A)" stroke-width=".84" d="M362.709 583.728l327.546-189.232"/><path stroke="url(#B)" stroke-width=".84" d="M73.509 354.606l479.96-277.13"/><path stroke="url(#C)" stroke-width=".84" d="M5.001 552.511L671.01 167.996"/><path stroke="url(#D)" stroke-width=".84" d="M279.205 552.762l411.894-237.947"/><path fill="url(#E)" d="M416.341 315.02v79.179l-68.545-39.479z"/><path stroke="url(#F)" stroke-width=".84" d="M279.235 631.949V0"/><path stroke="url(#G)" stroke-width=".84" d="M142.122 631.949V315.074"/><path stroke="url(#H)" stroke-width=".84" d="M416.356 631.949V77.529"/><path stroke="url(#I)" stroke-width=".84" d="M553.469 631.949V314.967"/><path stroke="url(#J)" stroke-width=".84" d="M621.969 583.728V275.556"/><path stroke="url(#K)" stroke-width=".84" d="M484.909 631.949V37.967"/><path stroke="url(#L)" stroke-width=".84" d="M347.796 631.949V37.974"/><path stroke="url(#K)" stroke-width=".84" d="M210.683 631.949V37.967"/><path stroke="url(#M)" stroke-width=".84" d="M73.562 631.949V433.762"/><path fill="url(#N)" d="M416.341 235.925v79.095l-68.545 39.7v-79.247z"/><path fill="url(#O)" fill-rule="nonzero" d="M279.235 393.994l-68.552-39.388-68.447 39.715 68.447 39.441z"/><path fill="url(#P)" fill-rule="nonzero" d="M553.469 394.192l-69.29-39.282-67.838 39.289 67.838 39.685z"/><path fill="url(#Q)" fill-rule="nonzero" d="M347.742 433.846l68.599-39.647-68.545-39.479-68.561 39.274z"/><path fill="url(#R)" fill-rule="nonzero" d="M142.069 393.994l-68.56-39.388-68.447 39.715 68.447 39.441z" opacity=".25"/><path fill="url(#S)" d="M279.197 315.043l68.599-39.57-68.515-39.578-68.652 39.639z"/><path fill="#94C4FF" d="M279.235 393.994l.038-78.951-68.644-39.509v78.973z"/><path fill="#2E5BDB" d="M347.758 275.473l.038 79.247-68.561 39.274v-78.951z"/><circle cx="279.273" cy="315.02" r="3.8" fill="#FFF" fill-rule="nonzero"/><path fill="url(#T)" d="M347.78 196.294l68.56-39.57-49.443-28.74a38.008 38.008 0 00-38.096-.053l-49.589 28.648 68.568 39.715z"/><path fill="url(#U)" d="M347.796 275.473l-.016-79.179-68.568-39.73.069 79.331z"/><path fill="#1630AD" d="M416.341 156.724v79.201l-68.545 39.548-.016-79.179z"/><path fill="url(#V)" fill-rule="nonzero" d="M347.917 513.07l-.175-79.224-68.507-39.852.069 79.529z"/><path fill="url(#W)" fill-rule="nonzero" d="M210.736 513.07l.007-79.224-68.507-39.852.061 79.529z"/><path fill="url(#X)" fill-rule="nonzero" d="M279.235 393.994l.069 79.529-68.621 39.547v-79.308z"/><path fill="url(#Y)" fill-rule="nonzero" d="M279.205 552.762l68.712-39.692-68.613-39.547-68.621 39.547z" opacity=".8"/><path fill="url(#Z)" fill-rule="nonzero" d="M416.196 552.762l68.713-39.692-68.621-39.547-68.926 39.372z" opacity=".8"/><path fill="url(#aa)" fill-rule="nonzero" d="M553.37 552.762l68.705-39.692-68.613-39.547-68.622 39.547z" opacity=".25"/><path fill="url(#ab)" fill-rule="nonzero" d="M142.031 552.762l68.705-39.692-68.614-39.547-68.621 39.547z" opacity=".2"/><path fill="url(#ac)" fill-rule="nonzero" d="M484.909 513.07l.007-79.141-68.575-39.73-.57 79.21z"/><path fill="url(#ad)" fill-rule="nonzero" d="M416.341 394.199l-.053 79.324-68.371 39.547-.175-79.224z"/><path fill="url(#ae)" d="M484.916 196.279l-.03 79.171-68.735 39.365.19-78.89z"/><path stroke="url(#af)" stroke-linecap="round" stroke-linejoin="round" stroke-width="1.68" d="M141.301 583.728l.821-31.239 68.561-39.419 68.522 39.692 137.136-79.414 68.575 39.775 68.477-39.631.069-78.996-68.546-39.981-68.56 39.806-68.56-39.601-68.561 39.274-68.552-39.388-.061-79.126 68.659-39.585-.479-79.407"/><circle cx="621.969" cy="433.929" r="3.04" fill="#C8E1FF" fill-rule="nonzero"/><circle cx="73.151" cy="513.146" r="3.04" fill="#C8E1FF" fill-rule="nonzero"/><circle cx="416.341" cy="552.504" r="3.04" fill="#C8E1FF" fill-rule="nonzero"/><circle cx="553.37" cy="552.504" r="3.04" fill="#C8E1FF" fill-rule="nonzero"/><circle cx="622.106" cy="513.146" r="3.04" fill="#C8E1FF" fill-rule="nonzero"/><circle cx="278.992" cy="552.838" r="3.04" fill="#94C4FF" fill-rule="nonzero"/><circle cx="553.469" cy="473.523" r="3.04" fill="#1885F2" fill-rule="nonzero"/><circle cx="484.696" cy="355.001" r="3.8" fill="#2E5BDB" fill-rule="nonzero"/><circle cx="484.498" cy="275.876" r="3.8" fill="#1885F2" fill-rule="nonzero"/><path stroke="#FFF" stroke-width="1.68" d="M347.742 433.846l.175 79.224m68.431-118.757l.168 79.232m68.347-39.806l.259 79.225m-205.91-118.81l.175 79.224m-68.735-39.464l.091 79.156m-.091-79.156l68.583-39.92m-68.583 119.35l68.583-39.92m68.515-39.51l68.583-39.92m-137.136 0l68.583 39.92m-205.582-39.92l68.583 39.92m-68.583 39.609l68.583 39.927m68.416-39.927l68.583 39.927m68.272-119.456l68.583 39.92m.251 0l68.583-39.92"/><circle cx="347.742" cy="433.929" r="3.04" fill="#1885F2" fill-rule="nonzero"/><circle cx="210.683" cy="433.929" r="3.04" fill="#94C4FF" fill-rule="nonzero"/><circle cx="416.151" cy="394.435" r="3.8" fill="#2E5BDB" fill-rule="nonzero"/><circle cx="484.992" cy="433.929" r="3.04" fill="#94C4FF" fill-rule="nonzero"/><circle cx="210.652" cy="513.146" r="3.04" fill="#94C4FF" fill-rule="nonzero"/><circle cx="347.917" cy="513.07" r="3.04" fill="#1885F2" fill-rule="nonzero"/><circle cx="484.992" cy="513.146" r="3.04" fill="#1885F2" fill-rule="nonzero"/><circle cx="416.432" cy="473.523" r="3.04" fill="#1885F2" fill-rule="nonzero"/><path fill="url(#ag)" fill-rule="nonzero" d="M690.575 393.994l-68.553-39.388-68.446 39.715 68.446 39.441z" opacity=".25"/><circle cx="210.546" cy="354.743" r="3.8" fill="#2CA2FF" fill-rule="nonzero" stroke="#FFF" stroke-width="1.68"/><path stroke="url(#ah)" stroke-width="1.68" d="M279.197 315.043l68.599-39.57"/><path stroke="#FFF" stroke-width="1.68" d="M347.78 196.294l.016 79.179"/><path stroke="url(#ai)" stroke-width="1.68" d="M347.78 275.23l.016 79.171"/><path stroke="url(#aj)" stroke-width="1.68" d="M416.326 235.636l.015 79.179"/><path stroke="url(#ak)" stroke-width="1.68" d="M347.78 196.294l68.561-39.57"/><path stroke="url(#al)" stroke-width="1.68" d="M347.78 275.336l68.561-39.578"/><path stroke="url(#am)" stroke-width="1.68" d="M347.78 354.515l68.561-39.571"/><path stroke="url(#an)" stroke-width="1.68" d="M347.78 196.294l-68.651-39.92"/><path stroke="url(#ao)" stroke-width="1.68" d="M347.78 275.511l-68.651-39.928"/><path stroke="url(#ap)" stroke-width="1.68" d="M279.197 315.043l-68.575-39.509"/><path stroke="url(#aq)" stroke-width="1.68" d="M279.129 315.043l.175 78.951"/><circle cx="210.546" cy="275.556" r="3.8" fill="#2E76E5" fill-rule="nonzero" stroke="#FFF" stroke-width="1.68"/><circle cx="279.304" cy="394.199" r="3.8" fill="#94C4FF" fill-rule="nonzero" stroke="#FFF" stroke-width="1.68"/><circle cx="416.432" cy="314.815" r="3.8" fill="#2E5BDB" fill-rule="nonzero" stroke="#FFF" stroke-width="1.68"/><circle cx="279.129" cy="235.925" r="3.8" fill="#2E76E5" fill-rule="nonzero" stroke="#FFF" stroke-width="1.68"/><circle cx="348.046" cy="275.876" r="3.8" fill="#FFF" fill-rule="nonzero"/><circle cx="348.046" cy="196.036" r="3.8" fill="#FFF" fill-rule="nonzero"/><circle cx="553.37" cy="394.199" r="3.8" fill="#2E76E5" fill-rule="nonzero" stroke="#FFF" stroke-width="1.68"/><circle cx="347.613" cy="354.91" r="3.8" fill="#94C4FF" fill-rule="nonzero" stroke="#FFF" stroke-width="1.68"/><path fill="url(#ar)" fill-rule="nonzero" stroke="#FFF" stroke-width=".84" d="M518.771 256.486l.008 79.141-68.485-39.586-.068-78.989z" opacity=".59"/><circle cx="142.092" cy="394.465" r="3.04" fill="#C8E1FF" fill-rule="nonzero"/><circle cx="142.092" cy="473.348" r="3.04" fill="#C8E1FF" fill-rule="nonzero"/><ellipse cx="569.69" cy="319.201" fill="#FFF" fill-rule="nonzero" rx="3.42" ry="3.8"/><path fill="url(#as)" fill-rule="nonzero" d="M566.269 319.201h6.841v57.767h-6.841z"/><g fill-rule="nonzero" transform="translate(224.227 382.327)"><ellipse cx="3.709" cy="3.983" fill="#FFF" rx="3.42" ry="3.8"/><path fill="url(#at)" d="M.289 3.983H7.13v126.175H.289z"/></g><g fill-rule="nonzero" transform="translate(239.43 403.61)"><ellipse cx="3.709" cy="4.553" fill="#FFF" rx="3.42" ry="3.8"/><path fill="url(#au)" d="M.289 4.553H7.13v72.969H.289z"/></g><ellipse cx="258.34" cy="436.613" fill="#FFF" fill-rule="nonzero" rx="3.42" ry="3.8"/><path fill="url(#av)" fill-rule="nonzero" d="M254.92 436.613h6.841v57.767h-6.841z"/><path fill="url(#aw)" fill-rule="nonzero" d="M392.968 64.798a92.088 92.088 0 00-92.2 0l-181.66 104.969a90.943 90.943 0 0190.603-.456s154.146 89.463 177.177 102.308a71.435 71.435 0 0016.874 6.613c32.684 8.437 57.16-2.964 147.61-55.335l57.767-33.368-216.17-124.731z" opacity=".77"/><path fill="url(#ax)" style="mix-blend-mode:lighten" d="M348.525 9.159L232.193 41.653l47.164 114.911 68.758 39.73 68.37-39.57 45.203-121.478z"/><circle cx="309.358" cy="125.377" r="3.04" fill="#FFF" fill-rule="nonzero"/><circle cx="387.647" cy="118.536" r="2.28" fill="#FFF" fill-rule="nonzero"/><circle cx="398.289" cy="93.453" r="3.04" fill="#FFF" fill-rule="nonzero"/><circle cx="326.08" cy="79.772" r="3.04" fill="#FFF" fill-rule="nonzero"/><circle cx="331.4" cy="152.741" r="2.28" fill="#FFF" fill-rule="nonzero" opacity=".71"/><path stroke="url(#ay)" stroke-width="1.68" d="M348.123 195.306V52.408"/><circle cx="279.387" cy="155.606" r="3.8" fill="#2E5BDB" fill-rule="nonzero" stroke="#FFF" stroke-width="1.68"/><circle cx="415.771" cy="156.541" r="15.962" fill="#FFF" fill-rule="nonzero" opacity=".54"/><circle cx="415.771" cy="156.541" r="10.641" fill="#FFF" fill-rule="nonzero" opacity=".8"/><circle cx="415.771" cy="156.541" r="4.561" fill="#2EDBAF" fill-rule="nonzero" stroke="#FFF" stroke-width="1.68"/><path fill="url(#az)" fill-rule="nonzero" d="M552.511 235.545l-68.332-39.449-68.408 39.449 68.408 39.525z" opacity=".25"/><circle cx="416.333" cy="235.925" r="3.8" fill="#1630AD" fill-rule="nonzero" stroke="#FFF" stroke-width="1.68"/><circle cx="484.498" cy="196.704" r="3.8" fill="#1885F2" fill-rule="nonzero"/><path fill="url(#aA)" fill-rule="nonzero" d="M255.847 195.838l-46.061-26.68a90.943 90.943 0 00-90.603.457 92.137 92.137 0 00-45.378 79.43v262.231l182.118-105.12V195.838h-.076z"/><g fill-rule="nonzero" transform="translate(228.028 196.104)"><ellipse cx="3.42" cy="4.523" fill="#FFF" rx="3.42" ry="3.8"/><path fill="url(#h)" d="M0 4.523h6.841v72.969H0z"/></g><g fill-rule="nonzero" transform="translate(259.192 115.534)"><ellipse cx="3.42" cy="4.523" fill="#FFF" rx="3.42" ry="3.8"/><path fill="url(#aB)" d="M0 4.523h6.841v126.175H0z"/></g><g fill-rule="nonzero" transform="translate(243.99 158.1)"><ellipse cx="3.42" cy="4.523" fill="#FFF" rx="3.42" ry="3.8"/><path fill="url(#aC)" d="M0 4.523h6.841v80.57H0z"/></g><path fill="url(#aD)" fill-rule="nonzero" stroke="#FFF" stroke-width=".84" d="M621.908 473.029l-.038 39.524-68.484 39.578v-79.133l34.34-19.762a22.806 22.806 0 0122.806.027 22.806 22.806 0 0111.376 19.766z" opacity=".58"/></g></g></g></svg>