<svg xmlns="http://www.w3.org/2000/svg" width="15" height="13"><g transform="translate(.5 .5)" stroke="#FFF" fill="none" fill-rule="evenodd" opacity=".3"><path fill="#FFF" fill-rule="nonzero" stroke-width=".4" d="M7.34 6.932c-.007-.29.016-.522.068-.694.052-.172.129-.32.23-.444.1-.124.305-.332.614-.626.31-.293.511-.537.606-.734.095-.196.142-.415.142-.657 0-.538-.185-.969-.555-1.292C8.075 2.162 7.612 2 7.055 2c-.275 0-.537.042-.784.127a1.987 1.987 0 00-.675.394 1.622 1.622 0 00-.44.608c-.092.226-.144.557-.156.992h.697c0-.997.447-1.495 1.34-1.495.403 0 .71.105.917.317.208.211.312.455.312.73 0 .275-.063.479-.188.612-.125.132-.332.346-.62.639-.287.293-.47.515-.55.666-.08.151-.147.328-.202.53a3.214 3.214 0 00-.082.812h.715zM7.403 8.5v-.834h-.798V8.5h.798z"/><path stroke-linecap="round" d="M4.5 12h6"/><rect width="14" height="10" rx="1"/></g></svg>