<svg xmlns="http://www.w3.org/2000/svg" width="14" height="14"><path d="M3.783.044a.15.15 0 01.212 0l.849.848a.152.152 0 010 .213L2.87 3.076l10.979.001c.066 0 .123.043.142.103l.008.047v1.2a.15.15 0 01-.15.15L2.87 4.576l1.974 1.973a.151.151 0 01.028.174l-.028.038-.849.849a.15.15 0 01-.212 0L.106 3.933a.15.15 0 010-.212zm6.434 6l3.677 3.677a.15.15 0 010 .212l-.955.955-2.722 2.722a.15.15 0 01-.212 0l-.849-.849a.15.15 0 010-.212l1.973-1.973-10.979.001a.149.149 0 01-.142-.103L0 10.427v-1.2a.15.15 0 01.15-.15l10.978-.001-1.972-1.971a.152.152 0 010-.213l.849-.848a.15.15 0 01.212 0z" fill="#9EA2AE" fill-rule="evenodd"/></svg>