<svg xmlns="http://www.w3.org/2000/svg" width="14" height="14"><path d="M3.783.217a.15.15 0 01.212 0l.849.849a.15.15 0 010 .212L2.87 3.249l10.979.001c.066 0 .123.043.142.103L14 3.4v1.2a.15.15 0 01-.15.15L2.87 4.749l1.974 1.973a.151.151 0 01.028.174l-.028.038-.849.849a.15.15 0 01-.212 0L.106 4.106a.15.15 0 010-.212zm6.434 6l3.677 3.677a.15.15 0 010 .212l-.955.955-2.722 2.722a.15.15 0 01-.212 0l-.849-.849a.15.15 0 010-.212l1.973-1.973L.15 10.75a.149.149 0 01-.142-.103L0 10.6V9.4a.15.15 0 01.15-.15l10.978-.001-1.972-1.971a.15.15 0 010-.212l.849-.849a.15.15 0 01.212 0z" fill="#FFF" fill-rule="evenodd"/></svg>