<svg xmlns="http://www.w3.org/2000/svg" width="36" height="36"><g fill="none" fill-rule="evenodd"><circle cx="18" cy="18" r="18" fill="#94C4FF"/><path fill="#FFF" d="M18.522 9.647c.135.083.248.196.331.331l7.876 12.88a1 1 0 01-.853 1.521H10.124a1 1 0 01-.853-1.522l7.876-12.879a1 1 0 011.375-.331zm-.027 10.878h-1.01a.245.245 0 00-.245.245v1.01c0 .135.11.245.245.245h1.01c.135 0 .245-.11.245-.245v-1.01a.245.245 0 00-.245-.245zm.247-5.942h-1.497a.246.246 0 00-.232.258l.225 4.51c.007.13.115.232.245.232h1.034c.13 0 .238-.102.245-.232l.225-4.51v-.013a.245.245 0 00-.245-.245z"/></g></svg>