<svg xmlns="http://www.w3.org/2000/svg" width="36" height="36"><g fill="none" fill-rule="evenodd"><circle cx="18" cy="18" r="18" fill="#F2F2F3"/><path fill="#2E5BDB" d="M10.5 21a.5.5 0 01.5.5V24h14v-2.5a.5.5 0 01.5-.5h1a.5.5 0 01.5.5v4a.5.5 0 01-.41.492L26.5 26h-17a.5.5 0 01-.5-.5v-4a.5.5 0 01.5-.5h1zm8-13a.5.5 0 01.5.5v9.913l2.89-2.888a.5.5 0 01.706 0l.707.707a.499.499 0 010 .707l-4.235 4.236-.007.007-.707.707a.502.502 0 01-.708 0l-4.95-4.95a.5.5 0 010-.707l.708-.707a.5.5 0 01.707 0l2.888 2.888L17 8.5a.5.5 0 01.5-.5h1z"/></g></svg>