<svg xmlns="http://www.w3.org/2000/svg" width="95" height="25"><defs><linearGradient id="a" x1="50%" x2="50%" y1="100%" y2="-.057%"><stop offset="0%" stop-color="#2E5BDB"/><stop offset="100%" stop-color="#1630AD"/></linearGradient><linearGradient id="b" x1="0%" x2="100%" y1="50.08%" y2="50.08%"><stop offset="0%" stop-color="#0094FF"/><stop offset="100%" stop-color="#2E76E5"/></linearGradient><linearGradient id="c" x1="0%" x2="100%" y1="49.907%" y2="49.907%"><stop offset="0%" stop-color="#2E76E5"/><stop offset="100%" stop-color="#2E5BDB"/></linearGradient><linearGradient id="d" x1="49.937%" x2="49.937%" y1="139.992%" y2="3.165%"><stop offset="0%" stop-color="#FFF"/><stop offset="100%" stop-color="#94C4FF"/></linearGradient></defs><g fill="none"><path d="M69.051 6.045v-.988H63.27v1.792h4.977c.444 0 .804-.36.804-.804zM44.222 13.33v1.477h15.795c.445 0 .805-.36.807-.804v-.935H44.222v.262zm13.321 2.61h-10.06a.83.83 0 00-.83.821v4.21c0 .459.372.83.83.83h10.06a.83.83 0 00.83-.83v-4.21a.831.831 0 00-.83-.82zm-1.37 4.046h-7.31v-2.23h7.322l-.012 2.23zm-8.543-8.208h9.887c.444 0 .804-.36.804-.804v-.852h-9.315V8.844h8.38a.807.807 0 00.807-.807V5.236a.807.807 0 00-.807-.807H46.818v1.662h9.27v1.202h-8.466a.804.804 0 00-.804.804v2.877a.805.805 0 00.813.804zm30.137-.59h-2.824v-6.76h-1.932v17.284h1.137c.444 0 .804-.36.804-.804v-7.953h2.02a.81.81 0 00.57-.237.81.81 0 00.234-.57l-.009-.96zm-9.722 2.002c.24-.306.614-.852.631-.872.017-.02.216-.318.341-.525.063-.1.128-.205.185-.307.238-.418.468-.852.67-1.287.194-.426.363-.862.506-1.307a.808.808 0 00-.767-1.057h-7.827V9.66h6.148a12.744 12.744 0 01-2.668 3.693 14.861 14.861 0 01-3.82 2.611l-.569.284.886 1.63.182-.073.392-.168a16.144 16.144 0 001.628-.852 14.37 14.37 0 002.557-1.932l.224-.227c.233.25.46.48.725.744a16.44 16.44 0 002.687 2.154l.568.35 1.137-1.498a17.197 17.197 0 01-3.816-3.185zm-31.079 1.532c2.758-.438 4.855-2.557 4.855-5.114 0-.363-.044-.724-.128-1.077a4.838 4.838 0 00-1.383-2.383 6.454 6.454 0 00-8.807 0 4.845 4.845 0 00-1.384 2.382 4.706 4.706 0 00-.128 1.077c0 2.557 2.086 4.656 4.83 5.114v2.414h-7.219v1.773h15.816c.444 0 .804-.36.804-.804v-.971h-7.256v-2.412zm-1.054-8.239c2.12 0 3.84 1.403 3.84 3.125s-1.72 3.125-3.84 3.125-3.842-1.42-3.842-3.125 1.737-3.128 3.841-3.128v.003zM77.767 17.13v1.776h15.957c.445 0 .806-.36.807-.804v-.971H77.767zm2.997-2.323h10.543c.444 0 .804-.36.804-.804v-.973H81.9v-2.235h10.05V9.063H81.9V6.977a.646.646 0 010-.139h10.042V5.057H79.957v8.946a.808.808 0 00.807.804z" fill="#1C2029"/><path fill="url(#a)" d="M7.517 5.92L5.614 4.83a3.77 3.77 0 00-1.855-.49 3.736 3.736 0 00-1.887.49A3.809 3.809 0 000 8.12v10.82l7.517-4.34V5.92z"/><path fill="url(#b)" d="M20.645 20.04a3.763 3.763 0 01-3.787-.046l-9.341-5.397L0 18.94l9.375 5.398a3.812 3.812 0 003.807 0l7.466-4.298h-.003z"/><path fill="url(#c)" d="M13.179.509a3.807 3.807 0 00-3.807 0l-7.5 4.32c.573-.334 1.272-.488 1.887-.488.64.023 1.29.161 1.855.489 0 0 6.11 3.544 7.056 4.072.22.124.455.22.7.284 1.349.347 2.357-.122 6.093-2.273l2.383-1.375L13.18.508z"/><path fill="url(#d)" d="M20.17 8.133c-3.735 2.159-4.647 2.798-5.022 4.139-.069.241-.106.49-.111.742-.017 1.085 0 5.932 0 5.932l1.903 1.1a3.758 3.758 0 003.739-.02 3.812 3.812 0 001.875-3.279v-9.99L20.17 8.134z"/></g></svg>