<svg xmlns="http://www.w3.org/2000/svg" width="150" height="150"><g transform="translate(29 18)" fill="none" fill-rule="evenodd"><path stroke="#9EA2AE" stroke-width="2" d="M5 55V5h72v104H59M33 14h16m3 0h3M5 78v31h31"/><circle cx="5" cy="5" r="4" fill="#2E5BDB" stroke="#FFF" stroke-width="2" transform="matrix(-1 0 0 1 10 0)"/><circle cx="77" cy="109" r="4" fill="#2E5BDB" stroke="#FFF" stroke-width="2" transform="matrix(-1 0 0 1 154 0)"/><circle cx="5" cy="109" r="4" fill="#2E5BDB" stroke="#FFF" stroke-width="2" transform="matrix(-1 0 0 1 10 0)"/><circle cx="77" cy="5" r="4" fill="#2EDBAF" stroke="#FFF" stroke-width="2"/><g transform="translate(23 24)"><circle cx="38" cy="30" r="30" fill="#FFF"/><path stroke="#2E5BDB" stroke-width="3" d="M57.272 49.272l21.214 21.214"/><path stroke="#9EA2AE" stroke-width="2" d="M0 30h22l7-12 14 24 7-12h26"/><circle cx="38" cy="30" r="28.5" stroke="#2E5BDB" stroke-width="3"/></g></g></svg>