<svg xmlns="http://www.w3.org/2000/svg" xmlns:xlink="http://www.w3.org/1999/xlink" width="1920" height="851"><defs><linearGradient id="c" x1="50%" x2="50%" y1="0%" y2="100%"><stop offset="0%" stop-color="#C6E4FF" stop-opacity="0"/><stop offset="100%" stop-color="#FFF"/></linearGradient><linearGradient id="d" x1="100%" x2="0%" y1="50%" y2="50%"><stop offset="0%" stop-color="#FFF"/><stop offset="100%" stop-color="#C6E4FF" stop-opacity="0"/></linearGradient><linearGradient id="e" x1="50%" x2="50%" y1="0%" y2="100%"><stop offset="0%" stop-color="#C6E4FF"/><stop offset="100%" stop-color="#FFF"/></linearGradient><linearGradient id="f" x1="50%" x2="50%" y1="0%" y2="100%"><stop offset="0%" stop-color="#94C4FF"/><stop offset="100%" stop-color="#2E5BDB"/></linearGradient><linearGradient id="g" x1="50%" x2="50%" y1="0%" y2="100%"><stop offset="0%" stop-color="#C6E4FF"/><stop offset="100%" stop-color="#FFF"/></linearGradient><linearGradient id="h" x1="84.493%" x2="47.273%" y1="55.402%" y2="37.396%"><stop offset="0%" stop-color="#FFF"/><stop offset="100%" stop-color="#C6E4FF" stop-opacity="0"/></linearGradient><linearGradient id="i" x1="50%" x2="50%" y1="0%" y2="157.897%"><stop offset="0%" stop-color="#C6E4FF"/><stop offset="100%" stop-color="#FFF"/></linearGradient><linearGradient id="j" x1="63.612%" x2="25.359%" y1="39.721%" y2="58.598%"><stop offset="0%" stop-color="#C6E4FF" stop-opacity="0"/><stop offset="0%" stop-color="#C7E4FF" stop-opacity=".028"/><stop offset="100%" stop-color="#FFF"/></linearGradient><linearGradient id="k" x1="50%" x2="50%" y1="0%" y2="100%"><stop offset="0%" stop-color="#C6E4FF"/><stop offset="100%" stop-color="#FFF"/></linearGradient><linearGradient id="l" x1="50%" x2="50%" y1="0%" y2="100%"><stop offset="0%" stop-color="#94C4FF"/><stop offset="100%" stop-color="#2E5BDB"/></linearGradient><linearGradient id="m" x1="54.537%" x2="41.786%" y1="19.163%" y2="75.793%"><stop offset="0%" stop-color="#C6E4FF" stop-opacity="0"/><stop offset="0%" stop-color="#C7E4FF" stop-opacity=".028"/><stop offset="100%" stop-color="#FFF"/></linearGradient><linearGradient id="n" x1="50%" x2="50%" y1="0%" y2="100%"><stop offset="0%" stop-color="#C6E4FF"/><stop offset="100%" stop-color="#FFF"/></linearGradient><linearGradient id="o" x1="17.112%" x2="28.028%" y1="95.505%" y2="82.725%"><stop offset="0%" stop-color="#FFF" stop-opacity=".3"/><stop offset="100%" stop-color="#FFF"/></linearGradient><linearGradient id="p" x1="50%" x2="50%" y1="0%" y2="100%"><stop offset="0%" stop-color="#C6E4FF"/><stop offset="100%" stop-color="#FFF"/></linearGradient><linearGradient id="q" x1="50%" x2="50%" y1="0%" y2="100%"><stop offset="0%" stop-color="#C6E4FF"/><stop offset="100%" stop-color="#FFF"/></linearGradient><linearGradient id="r" x1="50%" x2="50%" y1="0%" y2="100%"><stop offset="0%" stop-color="#C6E4FF"/><stop offset="100%" stop-color="#FFF"/></linearGradient><linearGradient id="s" x1="100%" x2="0%" y1="50%" y2="50%"><stop offset="0%" stop-color="#FFF"/><stop offset="100%" stop-color="#C6E4FF" stop-opacity="0"/></linearGradient><linearGradient id="t" x1="100%" x2="0%" y1="50%" y2="50%"><stop offset="0%" stop-color="#C6E4FF" stop-opacity="0"/><stop offset="100%" stop-color="#FFF"/></linearGradient><linearGradient id="u" x1="100%" x2="0%" y1="50%" y2="50%"><stop offset="0%" stop-color="#C6E4FF" stop-opacity="0"/><stop offset="100%" stop-color="#FFF"/></linearGradient><linearGradient id="v" x1="13.255%" x2="25.451%" y1="95.505%" y2="82.725%"><stop offset="0%" stop-color="#FFF" stop-opacity=".3"/><stop offset="100%" stop-color="#FFF"/></linearGradient><path id="a" d="M0 0h1920v850H0z"/></defs><g transform="translate(0 1)" fill="none" fill-rule="evenodd"><mask id="b" fill="#fff"><use xlink:href="#a"/></mask><use xlink:href="#a"/><g mask="url(#b)" opacity=".12"><g transform="translate(1251 -116)"><path stroke="url(#c)" stroke-width="1.08" d="M392.709 0v112.177l-97.149 56.091V56.09z" opacity=".5"/><path stroke="#94C4FF" stroke-width="1.08" d="M777.965 449.384l-97.15-56.09-97.149 56.09 97.149 56.089z"/><path stroke="url(#d)" stroke-width="1.08" d="M294.429 283.588V171.409L197.28 115.32v112.178zM98.796 843.321V731.142L1.647 675.053v112.179z"/><path stroke="url(#e)" stroke-width="1.08" d="M293.146 506.573v112.176l-97.15 56.092V562.662zm194.603-.053v112.176L390.6 674.788V562.609z" opacity=".5"/><path stroke="url(#f)" stroke-width="1.08" d="M389.216 787.095l97.149-56.14-97.149-56.089-97.15 56.089z"/><path stroke="url(#f)" stroke-width="1.08" d="M196.616 787.095l97.149-56.14-97.149-56.089-97.15 56.089z"/><g stroke="#2E5BDB" stroke-width="1.404"><path d="M293.146 955.376l97.149-56.14-97.149-56.089-97.15 56.089zm194.299 0l97.15-56.14-97.15-56.089-97.15 56.089z"/><path d="M98.847 955.376l97.149-56.14-97.149-56.089-97.15 56.089z" opacity=".378"/></g><path stroke="url(#d)" stroke-width="1.08" d="M195.996 674.841V562.662l-97.149-56.089v112.179z"/><path stroke="url(#g)" stroke-width="1.08" d="M390.469 674.788V562.609L293.32 506.52v112.178z" opacity=".5"/><path stroke="url(#h)" stroke-width="1.08" d="M292.766 282.673l-97.15-56.089-97.149 56.089 97.149 56.089z"/><path stroke="url(#i)" stroke-width="1.08" d="M777.965 675.104l-97.15-56.09-97.149 56.09 97.149 56.089z"/><path stroke="url(#j)" stroke-width="1.08" d="M777.965 223.664l-97.15-56.09-97.149 56.09 97.149 56.089z" opacity=".3"/><path stroke="url(#k)" stroke-width="1.08" d="M682.1 506.449l-97.15-56.089-97.15 56.089 97.15 56.089z" opacity=".5"/><path stroke="url(#l)" stroke-width="1.08" d="M293.146 730.93v112.176l-97.15 56.092V787.019zm387.9 0v112.176l-97.15 56.092V787.019zm-583.2 0v112.176L.696 899.198V787.019z"/><path stroke="url(#l)" stroke-width="1.08" d="M584.949 675v112.177L487.8 843.268V731.09zm-195.48 1.08v112.177l-97.149 56.091V732.17zm-194.4 0v112.177L97.92 844.348V732.17z"/><path stroke="url(#g)" stroke-width="1.08" d="M681.745 506.29v112.176l-97.15 56.092V562.379z"/><path stroke="url(#d)" stroke-width="1.08" d="M195.949 450.248V338.069L98.8 281.98v112.178z"/><path stroke="#94C4FF" stroke-width="1.08" d="M586.029 449.392V337.213l-97.149-56.089v112.178z"/><path stroke="url(#m)" stroke-width="1.08" d="M584.949 225.508V113.329L487.8 57.24v112.178z" opacity=".3"/><path stroke="url(#n)" stroke-width="1.08" d="M584.949 224.64L487.8 280.73" opacity=".5"/><path stroke="url(#o)" stroke-linecap="round" stroke-linejoin="round" stroke-width="2.7" d="M97.92 756.9l.876-25.74 96.653-57.24 97.843 57.273 97.004-57.273 98.006-55.214L585 675.053l95.815-56.213.051-111.137L585 450.484l-97.555 56.148-96.293-57.24-97.212 57.24-97.632-56.406V338.364l97.695-56.16.477-113.616 97.2-54.955 95.765 55.927"/><circle cx="391.68" cy="224.64" r="5.4" fill="#FFF" fill-rule="nonzero"/><circle cx="292.32" cy="618.84" r="4.32" fill="#FFF" fill-rule="nonzero"/><circle cx="196.092" cy="673.92" r="4.32" fill="#FFF" fill-rule="nonzero"/><circle cx="390.492" cy="673.92" r="4.32" fill="#FFF" fill-rule="nonzero"/><circle cx="390.492" cy="562.68" r="4.32" fill="#FFF" fill-rule="nonzero"/><circle cx="487.692" cy="506.52" r="5.4" fill="#FFF" fill-rule="nonzero"/><circle cx="584.1" cy="336.6" r="5.4" fill="#FFF" fill-rule="nonzero"/><circle cx="584.1" cy="225" r="5.4" fill="#FFF" fill-rule="nonzero"/><circle cx="294.48" cy="394.74" r="5.4" fill="#FFF" fill-rule="nonzero"/><circle cx="196.092" cy="561.6" r="4.32" fill="#FFF" fill-rule="nonzero"/><circle cx="586.08" cy="451.44" r="5.4" fill="#FFF" fill-rule="nonzero"/><circle cx="585" cy="562.68" r="4.32" fill="#94C4FF" fill-rule="nonzero"/><circle cx="487.8" cy="618.84" r="4.32" fill="#FFF" fill-rule="nonzero"/><circle cx="486.792" cy="731.16" r="4.32" fill="#FFF" fill-rule="nonzero"/><circle cx="98.892" cy="731.16" r="4.32" fill="#C8E1FF" fill-rule="nonzero"/><circle cx="584.892" cy="673.92" r="4.32" fill="#FFF" fill-rule="nonzero"/><circle cx="293.292" cy="731.16" r="4.32" fill="#FFF" fill-rule="nonzero"/><path stroke="url(#p)" stroke-width="1.08" d="M391.68 224.964v111.784m95.4-164.884v111.784" opacity=".5"/><path stroke="#94C4FF" stroke-width="1.08" d="M391.68 339.12v109.948m-98-53.948v109.948M487.26 393.66l-95.58 55.408m95.58-166.108l-95.58 55.408"/><path stroke="url(#q)" stroke-width="1.08" d="M294.48 394.74l-98.28-56.7m194.4.54l-98.28-56.7" opacity=".5"/><path stroke="url(#r)" stroke-width="1.08" d="M391.68 224.964l97.2-56.484M295.56 394.524l97.2-56.484m193.8-3.516l97.2-56.484" opacity=".5"/><path stroke="url(#s)" stroke-width="1.08" d="M98.46 507.324l97.2-56.484"/><path stroke="url(#r)" stroke-width="1.08" d="M295.56 224.964l97.2-56.484" opacity=".5" transform="matrix(-1 0 0 1 688.32 0)"/><circle cx="487.8" cy="280.8" r="5.4" fill="#FFF"/><circle cx="488.7" cy="392.4" r="5.4" fill="#FFF"/><circle cx="295.128" cy="168.588" r="6.48" fill="#2E5BDB" stroke="#FFF" stroke-width="2.16"/><circle cx="294.048" cy="281.988" r="6.48" fill="#2E5BDB" stroke="#FFF" stroke-width="2.16"/><circle cx="486.9" cy="168.66" r="5.4" fill="#FFF" fill-rule="nonzero"/><circle cx="196.2" cy="338.04" r="6.48" fill="#2E5BDB" stroke="#FFF" stroke-width="2.16"/><circle cx="391.572" cy="339.12" r="5.4" fill="#FFF" fill-rule="nonzero"/><circle cx="390.492" cy="450.36" r="4.32" fill="#FFF" fill-rule="nonzero"/><circle cx="392.94" cy="113.4" r="4.32" fill="#FFF" fill-rule="nonzero"/><circle cx="293.292" cy="506.52" r="4.32" fill="#FFF" fill-rule="nonzero"/></g></g><g mask="url(#b)" opacity=".12"><g transform="translate(-210 -78)"><path stroke="url(#c)" stroke-width="1.08" d="M392.709 0v112.177l-97.149 56.091V56.09z" opacity=".5"/><path stroke="#94C4FF" stroke-width="1.08" d="M777.965 449.384l-97.15-56.09-97.149 56.09 97.149 56.089z"/><path stroke="url(#d)" stroke-width="1.08" d="M294.429 283.588V171.409L197.28 115.32v112.178z"/><path stroke="url(#e)" stroke-width="1.08" d="M293.146 506.573v112.176l-97.15 56.092V562.662zm194.603-.053v112.176L390.6 674.788V562.609z" opacity=".5"/><path stroke="url(#f)" stroke-width="1.08" d="M389.216 787.095l97.149-56.14-97.149-56.089-97.15 56.089z"/><path stroke="url(#f)" stroke-width="1.08" d="M196.616 787.095l97.149-56.14-97.149-56.089-97.15 56.089z"/><path d="M293.146 955.376l97.149-56.14-97.149-56.089-97.15 56.089zm194.299 0l97.15-56.14-97.15-56.089-97.15 56.089z" stroke="#2E5BDB" stroke-width="1.404"/><path stroke="url(#g)" stroke-width="1.08" d="M390.469 674.788V562.609L293.32 506.52v112.178z" opacity=".5"/><path stroke="url(#t)" stroke-width="1.08" d="M875.115 844.168V731.989l-97.15-56.089v112.178z" opacity=".3"/><path stroke="url(#h)" stroke-width="1.08" d="M292.766 282.673l-97.15-56.089-97.149 56.089 97.149 56.089z"/><path stroke="url(#i)" stroke-width="1.08" d="M777.965 675.104l-97.15-56.09-97.149 56.09 97.149 56.089z"/><path stroke="url(#u)" stroke-width="1.08" d="M875.419 505.37l-97.15-56.09-97.149 56.09 97.149 56.089z"/><path stroke="url(#j)" stroke-width="1.08" d="M777.965 223.664l-97.15-56.09-97.149 56.09 97.149 56.089z" opacity=".3"/><path stroke="url(#k)" stroke-width="1.08" d="M682.1 506.449l-97.15-56.089-97.15 56.089 97.15 56.089z" opacity=".5"/><path stroke="url(#l)" stroke-width="1.08" d="M293.146 730.93v112.176l-97.15 56.092V787.019zm387.9 0v112.176l-97.15 56.092V787.019z"/><path stroke="url(#l)" stroke-width="1.08" d="M584.949 675v112.177L487.8 843.268V731.09z"/><path stroke="url(#t)" stroke-width="1.08" d="M874.389 505.44v112.177l-97.149 56.091V561.53z" opacity=".3"/><path stroke="url(#l)" stroke-width="1.08" d="M389.469 676.08v112.177l-97.149 56.091V732.17z"/><path stroke="url(#g)" stroke-width="1.08" d="M681.745 506.29v112.176l-97.15 56.092V562.379z"/><path stroke="#94C4FF" stroke-width="1.08" d="M586.029 449.392V337.213l-97.149-56.089v112.178z"/><path stroke="url(#m)" stroke-width="1.08" d="M584.949 225.508V113.329L487.8 57.24v112.178z" opacity=".3"/><path stroke="url(#n)" stroke-width="1.08" d="M584.949 224.64L487.8 280.73" opacity=".5"/><path stroke="url(#v)" stroke-linecap="round" stroke-linejoin="round" stroke-width="2.7" d="M102 675.382l94.669 55.811 97.003-57.273 98.006-55.214 96.699 56.347 95.815-56.213.051-111.137-95.866-57.219-97.555 56.148-95.293-57.24-.046-110.272 96.25-55.472 96.644-55.892" transform="matrix(-1 0 0 1 686.243 0)"/><circle cx="391.68" cy="224.64" r="5.4" fill="#FFF" fill-rule="nonzero"/><circle cx="292.32" cy="618.84" r="4.32" fill="#FFF" fill-rule="nonzero"/><circle cx="390.492" cy="673.92" r="4.32" fill="#FFF" fill-rule="nonzero"/><circle cx="390.492" cy="562.68" r="4.32" fill="#FFF" fill-rule="nonzero"/><circle cx="487.32" cy="506.32" r="4.32" fill="#FFF" fill-rule="nonzero"/><circle cx="585.612" cy="449.44" r="4.32" fill="#FFF" fill-rule="nonzero"/><circle cx="585.612" cy="337.44" r="4.32" fill="#FFF" fill-rule="nonzero"/><circle cx="682.32" cy="506.32" r="4.32" fill="#FFF" fill-rule="nonzero"/><circle cx="584.1" cy="225" r="5.4" fill="#FFF" fill-rule="nonzero"/><circle cx="294.48" cy="394.74" r="5.4" fill="#FFF" fill-rule="nonzero"/><circle cx="680.04" cy="618.84" r="4.32" fill="#FFF" fill-rule="nonzero"/><circle cx="585" cy="562.68" r="4.32" fill="#94C4FF" fill-rule="nonzero"/><circle cx="777.24" cy="673.92" r="4.32" fill="#C8E1FF" fill-rule="nonzero"/><circle cx="777.24" cy="561.6" r="4.32" fill="#C8E1FF" fill-rule="nonzero"/><circle cx="777.24" cy="449.1" r="4.32" fill="#C8E1FF" fill-rule="nonzero"/><circle cx="487.8" cy="618.84" r="4.32" fill="#FFF" fill-rule="nonzero"/><circle cx="682.092" cy="731.16" r="4.32" fill="#FFF" fill-rule="nonzero"/><circle cx="486.792" cy="731.16" r="4.32" fill="#FFF" fill-rule="nonzero"/><circle cx="584.892" cy="673.92" r="4.32" fill="#FFF" fill-rule="nonzero"/><circle cx="293.292" cy="731.16" r="4.32" fill="#FFF" fill-rule="nonzero"/><path stroke="url(#p)" stroke-width="1.08" d="M391.68 224.964v111.784m95.4-164.884v111.784" opacity=".5"/><path stroke="#94C4FF" stroke-width="1.08" d="M391.68 339.12v109.948m289-165.948v109.948m-387 2.052v109.948M487.26 393.66l-95.58 55.408m95.58-166.108l-95.58 55.408"/><path stroke="url(#q)" stroke-width="1.08" d="M294.48 394.74l-98.28-56.7m293.28 169.7l-98.28-56.7m195.28 224.7l-98.28-56.7m-97.6-280.46l-98.28-56.7" opacity=".5"/><path stroke="url(#r)" stroke-width="1.08" d="M391.68 224.964l97.2-56.484M295.56 394.524l97.2-56.484m193.8-1.516l97.2-56.484" opacity=".5"/><path stroke="url(#r)" stroke-width="1.08" d="M295.56 224.964l97.2-56.484" opacity=".5" transform="matrix(-1 0 0 1 688.32 0)"/><circle cx="487.8" cy="280.8" r="5.4" fill="#FFF"/><circle cx="488.7" cy="392.4" r="5.4" fill="#FFF"/><circle cx="295.128" cy="168.588" r="5.4" fill="#FFF" fill-rule="nonzero"/><circle cx="294.048" cy="281.988" r="5.4" fill="#FFF" fill-rule="nonzero"/><circle cx="486.9" cy="168.66" r="5.4" fill="#FFF" fill-rule="nonzero"/><circle cx="391.572" cy="339.12" r="5.4" fill="#FFF" fill-rule="nonzero"/><circle cx="390.492" cy="450.36" r="4.32" fill="#FFF" fill-rule="nonzero"/><circle cx="681.04" cy="280.8" r="4.32" fill="#FFF" fill-rule="nonzero"/><circle cx="392.94" cy="113.4" r="4.32" fill="#FFF" fill-rule="nonzero"/><circle cx="293.292" cy="506.52" r="4.32" fill="#FFF" fill-rule="nonzero"/><circle cx="680.612" cy="394.44" r="4.32" fill="#FFF" fill-rule="nonzero"/></g></g></g></svg>