<svg xmlns="http://www.w3.org/2000/svg" xmlns:xlink="http://www.w3.org/1999/xlink" width="360" height="350"><defs><linearGradient id="c" x1="50%" x2="50%" y1="0%" y2="100%"><stop offset="0%" stop-color="#C6E4FF" stop-opacity="0"/><stop offset="100%" stop-color="#FFF"/></linearGradient><linearGradient id="d" x1="100%" x2="0%" y1="50%" y2="50%"><stop offset="0%" stop-color="#FFF"/><stop offset="100%" stop-color="#C6E4FF" stop-opacity="0"/></linearGradient><linearGradient id="e" x1="50%" x2="50%" y1="0%" y2="100%"><stop offset="0%" stop-color="#C6E4FF"/><stop offset="100%" stop-color="#FFF"/></linearGradient><linearGradient id="f" x1="50%" x2="50%" y1="0%" y2="100%"><stop offset="0%" stop-color="#94C4FF"/><stop offset="100%" stop-color="#2E5BDB"/></linearGradient><linearGradient id="g" x1="50%" x2="50%" y1="0%" y2="100%"><stop offset="0%" stop-color="#C6E4FF"/><stop offset="100%" stop-color="#FFF"/></linearGradient><linearGradient id="h" x1="84.493%" x2="47.273%" y1="55.402%" y2="37.396%"><stop offset="0%" stop-color="#FFF"/><stop offset="100%" stop-color="#C6E4FF" stop-opacity="0"/></linearGradient><linearGradient id="i" x1="50%" x2="50%" y1="0%" y2="100%"><stop offset="0%" stop-color="#94C4FF"/><stop offset="100%" stop-color="#2E5BDB"/></linearGradient><linearGradient id="j" x1="17.112%" x2="28.028%" y1="95.505%" y2="82.725%"><stop offset="0%" stop-color="#FFF" stop-opacity=".3"/><stop offset="100%" stop-color="#FFF"/></linearGradient><linearGradient id="k" x1="50%" x2="50%" y1="22.2%" y2="100%"><stop offset="0%" stop-color="#FFF"/><stop offset="100%" stop-color="#FFF" stop-opacity="0"/></linearGradient><linearGradient id="l" x1="-33.059%" x2="92.801%" y1="20.721%" y2="63.718%"><stop offset="0%" stop-color="#FFF" stop-opacity="0"/><stop offset="100%" stop-color="#FFF"/></linearGradient><linearGradient id="m" x1="0%" x2="100.207%" y1="19.786%" y2="52.769%"><stop offset="0%" stop-color="#94C4FF"/><stop offset="100%" stop-color="#FFF"/></linearGradient><linearGradient id="n" x1="50%" x2="50%" y1="22.2%" y2="100%"><stop offset="0%" stop-color="#FFF"/><stop offset="100%" stop-color="#FFF" stop-opacity="0"/></linearGradient><linearGradient id="o" x1="100%" x2="0%" y1="33.039%" y2="66.961%"><stop offset="0%" stop-color="#FFF"/><stop offset="100%" stop-color="#FFF" stop-opacity="0"/></linearGradient><linearGradient id="p" x1="100%" x2="0%" y1="50%" y2="50%"><stop offset="0%" stop-color="#FFF"/><stop offset="100%" stop-color="#C6E4FF" stop-opacity="0"/></linearGradient><linearGradient id="q" x1="100%" x2="41.889%" y1="33.039%" y2="52.892%"><stop offset="0%" stop-color="#FFF" stop-opacity="0"/><stop offset="100%" stop-color="#FFF"/></linearGradient><linearGradient id="r" x1="63.612%" x2="25.359%" y1="39.721%" y2="58.598%"><stop offset="0%" stop-color="#C6E4FF" stop-opacity="0"/><stop offset="0%" stop-color="#C7E4FF" stop-opacity=".028"/><stop offset="100%" stop-color="#FFF"/></linearGradient><linearGradient id="s" x1="50%" x2="50%" y1="0%" y2="100%"><stop offset="0%" stop-color="#FFF"/><stop offset="100%" stop-color="#DBDBDB"/></linearGradient><linearGradient id="t" x1="100%" x2="0%" y1="50%" y2="50%"><stop offset="0%" stop-color="#C6E4FF" stop-opacity="0"/><stop offset="100%" stop-color="#FFF"/></linearGradient><linearGradient id="u" x1="50%" x2="50%" y1="0%" y2="157.897%"><stop offset="0%" stop-color="#C6E4FF"/><stop offset="100%" stop-color="#FFF"/></linearGradient><linearGradient id="v" x1="100%" x2="0%" y1="50%" y2="50%"><stop offset="0%" stop-color="#C6E4FF" stop-opacity="0"/><stop offset="100%" stop-color="#FFF"/></linearGradient><linearGradient id="w" x1="50%" x2="50%" y1="0%" y2="100%"><stop offset="0%" stop-color="#C6E4FF"/><stop offset="100%" stop-color="#FFF"/></linearGradient><path id="a" d="M0 0h360v350H0z"/></defs><g fill="none" fill-rule="evenodd"><mask id="b" fill="#fff"><use xlink:href="#a"/></mask><use xlink:href="#a"/><g mask="url(#b)" opacity=".15"><g transform="translate(202 31)"><path stroke="url(#c)" stroke-width=".5" d="M141.375 0v40.384l-34.973 20.193V20.192z" opacity=".5"/><path stroke="url(#d)" stroke-width=".5" d="M105.995 101.012V60.627L71.021 40.435v40.384zM35.567 303.595v-40.384L.593 243.019v40.384z"/><path stroke="url(#e)" stroke-width=".5" d="M105.533 182.366v40.384l-34.974 20.193v-40.385zm70.057-.019v40.384l-34.974 20.193v-40.385z" opacity=".5"/><path stroke="url(#f)" stroke-width=".5" d="M140.118 283.354l34.973-20.21-34.973-20.192-34.974 20.192z"/><path stroke="url(#f)" stroke-width=".5" d="M70.782 283.354l34.973-20.21-34.973-20.192-34.974 20.192z"/><g stroke="#2E5BDB" stroke-width=".505"><path d="M105.533 343.936l34.973-20.21-34.973-20.192-34.974 20.192zm69.947 0l34.974-20.21-34.974-20.192-34.974 20.192z"/><path d="M35.585 343.936l34.974-20.21-34.974-20.192L.611 323.726z" opacity=".378"/></g><path stroke="url(#d)" stroke-width=".5" d="M70.559 242.943v-40.385l-34.974-20.192v40.385z"/><path stroke="url(#g)" stroke-width=".5" d="M140.209 242.924v-40.385l-34.974-20.192v40.384z" opacity=".5"/><path stroke="url(#h)" stroke-width=".5" d="M106.116 101.042L71.142 80.85l-34.974 20.192 34.974 20.192z"/><path stroke="url(#i)" stroke-width=".5" d="M105.533 263.135v40.383l-34.974 20.193v-40.384zm-70.308 0v40.383L.251 323.711v-40.384z"/><path stroke="url(#g)" stroke-width=".5" d="M140.209 243.389v40.383l-34.974 20.193v-40.384z"/><path stroke="url(#i)" stroke-width=".5" d="M70.225 243.389v40.383l-34.974 20.193v-40.384z"/><path stroke="url(#d)" stroke-width=".5" d="M71.262 161.729v-40.384l-34.974-20.192v40.384z"/><path stroke="url(#j)" stroke-linecap="round" stroke-linejoin="round" stroke-width=".972" d="M35.251 272.484l.316-9.266 34.795-20.607 35.223 20.618 34.921-20.618 35.283-19.877 34.811 20.285 34.494-20.237.018-40.009-34.512-20.599-35.12 20.213-34.665-20.606-34.997 20.606-35.147-20.306v-40.27l35.17-20.218.172-40.901 34.992-19.784 34.475 20.134"/><circle cx="141.005" cy="80.87" r="1.944" fill="#FFF" fill-rule="nonzero"/><circle cx="105.235" cy="222.782" r="1.555" fill="#FFF" fill-rule="nonzero"/><circle cx="70.593" cy="242.611" r="1.555" fill="#FFF" fill-rule="nonzero"/><circle cx="140.577" cy="242.611" r="1.555" fill="#FFF" fill-rule="nonzero"/><circle cx="140.577" cy="202.565" r="1.555" fill="#FFF" fill-rule="nonzero"/><circle cx="106.013" cy="142.106" r="1.944" fill="#FFF" fill-rule="nonzero"/><circle cx="70.593" cy="202.176" r="1.555" fill="#FFF" fill-rule="nonzero"/><circle cx="35.601" cy="263.218" r="1.555" fill="#C8E1FF" fill-rule="nonzero"/><circle cx="105.585" cy="263.218" r="1.555" fill="#FFF" fill-rule="nonzero"/><path stroke="url(#k)" stroke-width="2.592" d="M141.005 80.987v40.242"/><path stroke="#94C4FF" stroke-width=".5" d="M141.005 122.083v39.581m34.409-19.946l-34.409 19.946m34.409-59.798l-34.409 19.946"/><path stroke="url(#l)" stroke-width="1.166" d="M106.013 142.106l-35.381-20.412"/><path stroke="url(#m)" stroke-width="1.166" d="M140.616 121.889l-35.381-20.412"/><path stroke="url(#n)" stroke-width="2.592" d="M141.005 80.987l34.992-20.334"/><path stroke="url(#o)" stroke-width="2.592" d="M106.402 142.029l34.992-20.335"/><path stroke="url(#p)" stroke-width=".5" d="M35.446 181.557l34.992-20.335"/><path stroke="url(#q)" stroke-width="1.166" d="M106.402 80.987l34.992-20.334" transform="matrix(-1 0 0 1 247.795 0)"/><circle cx="106.246" cy="60.692" r="2.333" fill="#2E5BDB" stroke="#FFF" stroke-width=".778"/><circle cx="105.857" cy="101.516" r="2.333" fill="#2E5BDB" stroke="#FFF" stroke-width=".778"/><circle cx="70.632" cy="121.694" r="2.333" fill="#2E5BDB" stroke="#FFF" stroke-width=".778"/><circle cx="140.966" cy="122.083" r="1.944" fill="#FFF" fill-rule="nonzero"/><circle cx="140.577" cy="162.13" r="1.555" fill="#FFF" fill-rule="nonzero"/><circle cx="141.458" cy="40.824" r="1.555" fill="#FFF" fill-rule="nonzero"/><circle cx="105.585" cy="182.347" r="1.555" fill="#FFF" fill-rule="nonzero"/></g></g><g mask="url(#b)" opacity=".15"><g transform="translate(-182 -170)"><path stroke="url(#r)" stroke-width=".5" d="M349.403 161.778l-34.973-20.192-34.974 20.192 34.974 20.192z" opacity=".3"/><path stroke="url(#e)" stroke-width=".5" d="M244.926 182.347v40.384l-34.974 20.193v-40.385z" opacity=".5"/><path stroke="url(#s)" stroke-width=".5" d="M209.454 283.354l34.973-20.21-34.973-20.192-34.974 20.192z"/><path d="M174.869 343.936l34.973-20.21-34.973-20.192-34.974 20.192zm69.947 0l34.974-20.21-34.974-20.192-34.974 20.192z" stroke="#FFF" stroke-width=".505"/><path stroke="url(#g)" stroke-width=".5" d="M209.545 242.924v-40.385l-34.974-20.192v40.384z" opacity=".5"/><path stroke="url(#t)" stroke-width=".5" d="M384.377 303.901v-40.385l-34.973-20.192v40.384z" opacity=".3"/><path stroke="url(#u)" stroke-width=".5" d="M349.403 243.037l-34.973-20.192-34.974 20.192 34.974 20.192z"/><path stroke="url(#v)" stroke-width=".5" d="M384.487 181.933l-34.974-20.192-34.974 20.192 34.974 20.192z"/><path stroke="url(#w)" stroke-width=".5" d="M314.892 182.322l-34.974-20.192-34.974 20.192 34.974 20.192z" opacity=".5"/><path stroke="#FFF" stroke-width=".5" d="M314.513 263.135v40.383l-34.974 20.193v-40.384z"/><path stroke="#FFF" stroke-width=".5" d="M279.918 243v40.384l-34.974 20.193v-40.385z"/><path stroke="url(#t)" stroke-width=".5" d="M384.116 181.958v40.384l-34.974 20.193v-40.384z" opacity=".3"/><path stroke="url(#g)" stroke-width=".5" d="M209.545 243.389v40.383l-34.974 20.193v-40.384zm105.219-61.125v40.384l-34.974 20.193v-40.384z"/><path stroke="url(#j)" stroke-linecap="round" stroke-linejoin="round" stroke-width=".972" d="M104.587 272.484l.316-9.266 34.795-20.607 35.223 20.618 34.921-20.618 35.283-19.877 34.811 20.285 34.494-20.237.018-40.009-34.512-20.599-35.12 20.213-34.665-20.606-34.997 20.606-35.147-20.306v-40.27l35.17-20.218.172-40.901 34.992-19.784 34.475 20.134"/><circle cx="209.913" cy="242.611" r="1.555" fill="#FFF" fill-rule="nonzero"/><circle cx="209.913" cy="202.565" r="1.555" fill="#FFF" fill-rule="nonzero"/><circle cx="244.905" cy="182.347" r="1.944" fill="#FFF" fill-rule="nonzero"/><circle cx="314.15" cy="222.782" r="1.555" fill="#FFF" fill-rule="nonzero"/><circle cx="279.936" cy="202.565" r="1.555" fill="#94C4FF" fill-rule="nonzero"/><circle cx="349.142" cy="242.611" r="1.555" fill="#C8E1FF" fill-rule="nonzero"/><circle cx="349.142" cy="202.176" r="1.555" fill="#C8E1FF" fill-rule="nonzero"/><circle cx="244.944" cy="222.782" r="1.555" fill="#FFF" fill-rule="nonzero"/><circle cx="314.889" cy="263.218" r="1.555" fill="#FFF" fill-rule="nonzero"/><circle cx="244.581" cy="263.218" r="1.555" fill="#FFF" fill-rule="nonzero"/><circle cx="279.897" cy="242.611" r="1.555" fill="#FFF" fill-rule="nonzero"/><circle cx="314.539" cy="182.347" r="1.944" fill="#FFF" fill-rule="nonzero"/></g></g></g></svg>