<svg xmlns="http://www.w3.org/2000/svg" width="130" height="60"><g fill="#FFF" fill-rule="evenodd"><path d="M0 34.263h11.664V.729H0zm25.083.062H39.07l-11.81-15.21c-1.284-1.647-1.34-3.07-1.34-3.07 0-1.45 1.536-2.958 1.536-2.958L39.07.531H25.083l-11.53 12.951c-1.536 2.01 0 5.353 0 5.353l11.53 15.49zM48.94 5.67a1.18 1.18 0 100 2.36 1.18 1.18 0 000-2.36"/><path d="M59.693 15.272l-6.634-4.138s-1.174-.886-2.76-.886h-1.71s-3.215-.226-3.853-3.294V4.997h5.768s2.37-.082 5.048 1.545l5.13 3.253s2.238 1.092 4.19 0L70.2 6.562s2.225-1.565 4.965-1.565h5.275s4.759-.08 5.006 5.283c0 0 .227 3.674-3.029 6.063 0 0 1.38-3.542-.412-5.354 0 0-.7-.906-2.06-1.07h-3.688s-1.998-.103-4.265 1.38l-6.242 3.973s-2.905 1.689-6.058 0zm24.413 14.306c0 2.714-1.738 3.153-1.738 3.153v-1.377c0-1.058-1.657-1.417-1.657-1.417l-9.127-2.515c-4.134-1.018-3.774-4.73-3.774-4.73.14-3.852 3.115-4.79 3.115-4.79-1.697 3.133 1.338 4.53 1.338 4.53l9.806 4.132c2.077.818 2.037 3.014 2.037 3.014zM68.249 18.6c-1.178 1.577-1.378 4.012-1.378 4.012 0 3.892 3.561 5.369 3.561 5.369v6.54c-.045-.046 11.849 0 11.849 0v-.82c2.716-.565 2.698-4.009 2.698-4.009 0-2.823-2.753-3.971-2.753-3.971v-8.25c4.867-2.512 4.047-8.347 4.047-8.347-.82-3.734-4.029-4.645-4.029-4.645V.726h-5.687c-4.995 0-7.273 1.476-7.273 1.476l-4.485 2.586c-1.913.93-3.882 0-3.882 0l-3.664-2.24C54.683.635 49.469.617 49.469.617h-6.052v33.708H55.23V17.203l5.531 3.553c2.037 1.217 4.414 0 4.414 0L68.25 18.6zm39.17-11.749h.43l4.493 13.88h-9.397l4.474-13.88zm-6.806 21.112h14.071l2.123 6.557h12.205l-11.383-30.6C116.064.165 111.761.165 111.761.165h-8.215c-4.499 0-6.063 3.792-6.063 3.792L86.177 34.52H98.5l2.113-6.557zm1.93 17.573h-2.884v1.805h2.884v1.432h-2.884v1.805h2.884v1.104h3.506V41.245h-3.506zm-7.26 12.439h7.26v-2.01h-7.26v2.01zm7.26-3.812h-7.26v-1.624h-3.506V58.5c0 .706.572 1.278 1.278 1.278h12.994v-7.239h-3.506v1.624zm-11.158-6.822a2.237 2.237 0 114.473.003 2.237 2.237 0 01-4.473-.003zm3.25 4.273c2.42 0 4.4-1.98 4.4-4.398 0-.892-.27-1.724-.73-2.42h1.273v-1.805h-4.25V40.67h-3.414v2.322h-4.506v1.806h1.53a4.364 4.364 0 00-.731 2.419 4.412 4.412 0 004.4 4.398h2.027zM15.25 46.64h-2.413v-5.395H9.94v9.81c0 .281-.162.508-.404.691-.86.485-1.995.831-3.486.831H4.116s-.884-.064-.884-.82V43.57h4.185v-1.974H.002v10.917s-.128 1.64 1.897 1.896c0 0 4.855.689 8.042-1.141v6.156h2.896V48.569h2.413v10.855h2.896V41.245H15.25v5.395zm23.275-5.395h-3.506v13.289h3.506v-5.77h3.427V46.64h-3.427zm-13.597 6.624v-.42c0-1.206.988-2.194 2.196-2.194 1.208 0 2.196.988 2.196 2.195v.419a2.202 2.202 0 01-2.196 2.195 2.202 2.202 0 01-2.196-2.195zm3.21 4.146c2.42 0 4.4-1.98 4.4-4.398a4.37 4.37 0 00-.89-2.644h1.85v-1.995h-4.651v-2.303h-3.445v2.303h-4.651v1.995h1.85a4.363 4.363 0 00-.89 2.644 4.412 4.412 0 004.4 4.398h2.027zm.042 4.78V53.47h-3.325v4.821s.131 1.132 1.49 1.132h12.792v-2.008H28.802s-.621.029-.621-.621m30.204-4.428c-.544.846-1.687 1.502-3.926 1.502h-11v2.084h9.367s3.597.186 5.56-1.333v4.957h3.506v-18.33h-3.507v11.12z"/><path d="M47.4 46.805v-.596a2.743 2.743 0 012.736-2.735 2.743 2.743 0 012.736 2.735v.596a2.743 2.743 0 01-2.736 2.734 2.743 2.743 0 01-2.736-2.734zm3.77 4.809c2.833 0 5.15-2.317 5.15-5.148 0-2.831-2.317-5.148-5.15-5.148h-2.003c-2.833 0-5.15 2.317-5.15 5.148 0 2.831 2.317 5.148 5.15 5.148h2.003zm31.609-10.369h-3.506v18.331h3.506V48.989h3.379v-2.02h-3.379zm-9.614 4.125l-.038-3.778H69.78v3.778s-.117 5.344-4.928 8.162l1.465 1.673s3.31-1.369 5.137-4.924c0 0 1.75 2.604 5.003 4.924l1.846-1.94s-5.137-2.596-5.137-7.895m43.497 4.547c-1.276 0-2.31-.953-2.31-2.129 0-1.175 1.034-2.128 2.31-2.128s2.31.953 2.31 2.128c0 1.176-1.034 2.129-2.31 2.129zm8.104 2.474c-.649 1.161-1.994 1.39-4.547 1.603h-1.78v-2.01c2.106-.352 3.723-2.166 3.723-4.334 0-.842-.244-1.63-.666-2.3h1.752v-1.985h-4.879v-2.322h-3.414v2.322h-5.027v1.985h1.9a4.3 4.3 0 00-.665 2.3c0 2.185 1.64 4.01 3.77 4.343v2h-5.715v1.977h9.367s5.132.008 6.181-1.3v4.883h3.507V41.22h-3.507v11.17z"/></g></svg>