<svg xmlns="http://www.w3.org/2000/svg" xmlns:xlink="http://www.w3.org/1999/xlink" width="1100" height="400"><defs><linearGradient id="e" x1="100%" x2="0%" y1="50%" y2="50%"><stop offset="0%" stop-color="#FFF"/><stop offset="100%" stop-color="#C6E4FF" stop-opacity="0"/></linearGradient><linearGradient id="f" x1="50%" x2="50%" y1="0%" y2="100%"><stop offset="0%" stop-color="#C6E4FF"/><stop offset="100%" stop-color="#FFF"/></linearGradient><linearGradient id="g" x1="50%" x2="50%" y1="0%" y2="100%"><stop offset="0%" stop-color="#94C4FF"/><stop offset="100%" stop-color="#2E5BDB"/></linearGradient><linearGradient id="h" x1="50%" x2="50%" y1="0%" y2="100%"><stop offset="0%" stop-color="#C6E4FF"/><stop offset="100%" stop-color="#FFF"/></linearGradient><linearGradient id="i" x1="84.493%" x2="47.273%" y1="55.398%" y2="37.407%"><stop offset="0%" stop-color="#FFF"/><stop offset="100%" stop-color="#C6E4FF" stop-opacity="0"/></linearGradient><linearGradient id="j" x1="50%" x2="50%" y1="0%" y2="157.897%"><stop offset="0%" stop-color="#C6E4FF"/><stop offset="100%" stop-color="#FFF"/></linearGradient><linearGradient id="k" x1="63.612%" x2="25.359%" y1="39.729%" y2="58.591%"><stop offset="0%" stop-color="#C6E4FF" stop-opacity="0"/><stop offset="0%" stop-color="#C7E4FF" stop-opacity=".028"/><stop offset="100%" stop-color="#FFF"/></linearGradient><linearGradient id="l" x1="50%" x2="50%" y1="0%" y2="100%"><stop offset="0%" stop-color="#C6E4FF"/><stop offset="100%" stop-color="#FFF"/></linearGradient><linearGradient id="m" x1="50%" x2="50%" y1="0%" y2="100%"><stop offset="0%" stop-color="#94C4FF"/><stop offset="100%" stop-color="#2E5BDB"/></linearGradient><linearGradient id="n" x1="54.541%" x2="41.78%" y1="19.163%" y2="75.793%"><stop offset="0%" stop-color="#C6E4FF" stop-opacity="0"/><stop offset="0%" stop-color="#C7E4FF" stop-opacity=".028"/><stop offset="100%" stop-color="#FFF"/></linearGradient><linearGradient id="o" x1="50%" x2="50%" y1="0%" y2="100%"><stop offset="0%" stop-color="#C6E4FF"/><stop offset="100%" stop-color="#FFF"/></linearGradient><linearGradient id="p" x1="17.085%" x2="28.01%" y1="95.505%" y2="82.725%"><stop offset="0%" stop-color="#FFF" stop-opacity=".3"/><stop offset="100%" stop-color="#FFF"/></linearGradient><linearGradient id="q" x1="50%" x2="50%" y1="0%" y2="100%"><stop offset="0%" stop-color="#C6E4FF"/><stop offset="100%" stop-color="#FFF"/></linearGradient><linearGradient id="r" x1="50%" x2="50%" y1="0%" y2="100%"><stop offset="0%" stop-color="#C6E4FF"/><stop offset="100%" stop-color="#FFF"/></linearGradient><linearGradient id="s" x1="50%" x2="50%" y1="0%" y2="100%"><stop offset="0%" stop-color="#C6E4FF"/><stop offset="100%" stop-color="#FFF"/></linearGradient><linearGradient id="t" x1="100%" x2="0%" y1="50%" y2="50%"><stop offset="0%" stop-color="#FFF"/><stop offset="100%" stop-color="#C6E4FF" stop-opacity="0"/></linearGradient><linearGradient id="u" x1="50%" x2="50%" y1="0%" y2="100%"><stop offset="0%" stop-color="#C6E4FF" stop-opacity="0"/><stop offset="100%" stop-color="#FFF"/></linearGradient><linearGradient id="v" x1="100%" x2="0%" y1="50%" y2="50%"><stop offset="0%" stop-color="#C6E4FF" stop-opacity="0"/><stop offset="100%" stop-color="#FFF"/></linearGradient><linearGradient id="w" x1="100%" x2="0%" y1="50%" y2="50%"><stop offset="0%" stop-color="#C6E4FF" stop-opacity="0"/><stop offset="100%" stop-color="#FFF"/></linearGradient><linearGradient id="x" x1="13.225%" x2="25.431%" y1="95.505%" y2="82.725%"><stop offset="0%" stop-color="#FFF" stop-opacity=".3"/><stop offset="100%" stop-color="#FFF"/></linearGradient><path id="a" d="M0 0h1100v400H0z"/><path id="c" d="M0 0h1194v528.378H0z"/></defs><g fill="none" fill-rule="evenodd"><mask id="b" fill="#fff"><use xlink:href="#a"/></mask><use fill="#D8D8D8" xlink:href="#a"/><g mask="url(#b)"><g transform="translate(-48 -39.378)"><mask id="d" fill="#fff"><use xlink:href="#c"/></mask><use xlink:href="#c"/><g mask="url(#d)" opacity=".12"><g transform="translate(777.966 -72.108)"><g stroke-width=".778"><path stroke="#94C4FF" d="M483.797 279.347l-60.415-34.867-60.415 34.867 60.415 34.866z"/><path stroke="url(#e)" d="M183.098 176.284v-69.732l-60.415-34.867v69.733zM61.439 524.226v-69.732L1.024 419.628v69.732z"/><path stroke="url(#f)" d="M182.3 314.897v69.731l-60.415 34.868v-69.733zm121.019-.033v69.731l-60.415 34.868V349.73z" opacity=".5"/><path stroke="url(#g)" d="M242.043 489.275l60.415-34.897-60.415-34.867-60.414 34.867z"/><path stroke="url(#g)" d="M122.27 489.275l60.415-34.897-60.415-34.867-60.415 34.867z"/><path stroke="url(#e)" d="M121.885 419.496v-69.733L61.47 314.897v69.732z"/><path stroke="url(#h)" d="M242.823 419.463V349.73l-60.415-34.866v69.732z" opacity=".5"/><path stroke="url(#i)" d="M182.064 175.716l-60.415-34.867-60.415 34.867 60.415 34.866z"/><path stroke="url(#j)" d="M483.797 419.659l-60.415-34.867-60.415 34.867 60.415 34.866z"/><path stroke="url(#k)" d="M483.797 139.034l-60.415-34.867-60.415 34.867 60.415 34.866z" opacity=".3"/><path stroke="url(#l)" d="M424.181 314.82l-60.415-34.866-60.415 34.866 60.415 34.866z" opacity=".5"/><path stroke="url(#m)" d="M182.3 454.362v69.731l-60.415 34.868v-69.733zm241.225 0v69.731l-60.414 34.868v-69.733zm-362.677 0v69.731L.433 558.961v-69.733z"/><path stroke="url(#m)" d="M363.765 419.595v69.731l-60.414 34.868v-69.733zm-121.564.671v69.731l-60.415 34.868v-69.732zm-120.892 0v69.731l-60.415 34.868v-69.732z"/><path stroke="url(#h)" d="M423.96 314.721v69.731l-60.415 34.868v-69.733z"/><path stroke="url(#e)" d="M121.856 279.884v-69.733l-60.415-34.866v69.732z"/><path stroke="#94C4FF" d="M364.437 279.352v-69.733l-60.415-34.866v69.732z"/><path stroke="url(#n)" d="M363.765 140.18V70.448l-60.414-34.866v69.732z" opacity=".3"/><path stroke="url(#o)" d="M363.765 139.641l-60.414 34.867" opacity=".5"/></g><path stroke="url(#p)" stroke-linecap="round" stroke-linejoin="round" stroke-width="1.944" d="M60.894 470.505l.545-16 60.106-35.582 60.846 35.602 60.324-35.602 60.948-34.322 60.134 35.027 59.585-34.944.032-69.085-59.617-35.569-60.667 34.903-59.882-35.581-60.454 35.581-60.715-35.063v-69.536l60.754-34.91.297-70.626 60.446-34.161 59.554 34.765"/><ellipse cx="243.576" cy="139.641" fill="#FFF" fill-rule="nonzero" rx="3.358" ry="3.357"/><ellipse cx="181.786" cy="384.684" fill="#FFF" fill-rule="nonzero" rx="2.687" ry="2.685"/><ellipse cx="121.945" cy="418.923" fill="#FFF" fill-rule="nonzero" rx="2.687" ry="2.685"/><ellipse cx="242.837" cy="418.923" fill="#FFF" fill-rule="nonzero" rx="2.687" ry="2.685"/><ellipse cx="242.837" cy="349.774" fill="#FFF" fill-rule="nonzero" rx="2.687" ry="2.685"/><ellipse cx="303.283" cy="314.864" fill="#FFF" fill-rule="nonzero" rx="3.358" ry="3.357"/><ellipse cx="363.237" cy="209.238" fill="#FFF" fill-rule="nonzero" rx="3.358" ry="3.357"/><ellipse cx="363.237" cy="139.865" fill="#FFF" fill-rule="nonzero" rx="3.358" ry="3.357"/><ellipse cx="183.13" cy="245.379" fill="#FFF" fill-rule="nonzero" rx="3.358" ry="3.357"/><ellipse cx="121.945" cy="349.103" fill="#FFF" fill-rule="nonzero" rx="2.687" ry="2.685"/><ellipse cx="364.469" cy="280.625" fill="#FFF" fill-rule="nonzero" rx="3.358" ry="3.357"/><ellipse cx="363.797" cy="349.774" fill="#94C4FF" fill-rule="nonzero" rx="2.687" ry="2.685"/><ellipse cx="303.351" cy="384.684" fill="#FFF" fill-rule="nonzero" rx="2.687" ry="2.685"/><ellipse cx="302.724" cy="454.505" fill="#FFF" fill-rule="nonzero" rx="2.687" ry="2.685"/><ellipse cx="61.498" cy="454.505" fill="#C8E1FF" fill-rule="nonzero" rx="2.687" ry="2.685"/><ellipse cx="363.73" cy="418.923" fill="#FFF" fill-rule="nonzero" rx="2.687" ry="2.685"/><ellipse cx="182.391" cy="454.505" fill="#FFF" fill-rule="nonzero" rx="2.687" ry="2.685"/><path stroke="url(#q)" stroke-width=".778" d="M243.576 139.842v69.488m59.327-102.496v69.488" opacity=".5"/><path stroke="#94C4FF" stroke-width=".778" d="M243.576 210.804v68.346m-60.944-33.535v68.346m120.383-69.253l-59.439 34.442m59.439-103.256l-59.439 34.443"/><path stroke="url(#r)" stroke-width=".778" d="M183.13 245.379l-61.118-35.246m120.892.336l-61.118-35.246" opacity=".5"/><path stroke="url(#s)" stroke-width=".778" d="M243.576 139.842l60.446-35.111M183.801 245.245l60.447-35.112m120.519-2.186l60.446-35.111" opacity=".5"/><path stroke="url(#t)" stroke-width=".778" d="M61.23 315.364l60.446-35.112"/><path stroke="url(#s)" stroke-width=".778" d="M183.801 139.842l60.447-35.111" opacity=".5" transform="matrix(-1 0 0 1 428.049 0)"/><ellipse cx="303.351" cy="174.551" fill="#FFF" rx="3.358" ry="3.357"/><ellipse cx="303.91" cy="243.924" fill="#FFF" rx="3.358" ry="3.357"/><ellipse cx="182.861" cy="175.29" fill="#2E5BDB" stroke="#FFF" stroke-width="1.555" rx="4.136" ry="4.134"/><ellipse cx="122.012" cy="210.133" fill="#2E5BDB" stroke="#FFF" stroke-width="1.555" rx="4.136" ry="4.134"/><ellipse cx="243.509" cy="210.804" fill="#FFF" fill-rule="nonzero" rx="3.358" ry="3.357"/><ellipse cx="242.837" cy="279.954" fill="#FFF" fill-rule="nonzero" rx="2.687" ry="2.685"/><ellipse cx="182.391" cy="314.864" fill="#FFF" fill-rule="nonzero" rx="2.687" ry="2.685"/></g></g><g mask="url(#d)" opacity=".12"><g transform="translate(-130.594 -48.486)"><g stroke-width=".778"><path stroke="url(#u)" d="M244.216 0v69.732l-60.415 34.867V34.867z" opacity=".5"/><path stroke="#94C4FF" d="M483.797 279.347l-60.415-34.867-60.415 34.867 60.415 34.866z"/><path stroke="url(#e)" d="M183.098 176.284v-69.732l-60.415-34.867v69.733z"/><path stroke="url(#f)" d="M182.3 314.897v69.731l-60.415 34.868v-69.733zm121.019-.033v69.731l-60.415 34.868V349.73z" opacity=".5"/><path stroke="url(#g)" d="M242.043 489.275l60.415-34.897-60.415-34.867-60.414 34.867z"/><path stroke="url(#g)" d="M122.27 489.275l60.415-34.897-60.415-34.867-60.415 34.867z"/><path stroke="url(#h)" d="M242.823 419.463V349.73l-60.415-34.866v69.732z" opacity=".5"/><path stroke="url(#v)" d="M544.212 524.753V455.02l-60.415-34.866v69.733z" opacity=".3"/><path stroke="url(#i)" d="M182.064 175.716l-60.415-34.867-60.415 34.867 60.415 34.866z"/><path stroke="url(#j)" d="M483.797 419.659l-60.415-34.867-60.415 34.867 60.415 34.866z"/><path stroke="url(#w)" d="M544.401 314.149l-60.415-34.867-60.414 34.867 60.414 34.866z"/><path stroke="url(#k)" d="M483.797 139.034l-60.415-34.867-60.415 34.867 60.415 34.866z" opacity=".3"/><path stroke="url(#l)" d="M424.181 314.82l-60.415-34.866-60.415 34.866 60.415 34.866z" opacity=".5"/><path stroke="url(#m)" d="M182.3 454.362v69.731l-60.415 34.868v-69.733zm241.225 0v69.731l-60.414 34.868v-69.733z"/><path stroke="url(#m)" d="M363.765 419.595v69.731l-60.414 34.868v-69.733z"/><path stroke="url(#v)" d="M543.761 314.192v69.732l-60.415 34.868v-69.733z" opacity=".3"/><path stroke="url(#m)" d="M242.201 420.266v69.731l-60.415 34.868v-69.732z"/><path stroke="url(#h)" d="M423.96 314.721v69.731l-60.415 34.868v-69.733z"/><path stroke="#94C4FF" d="M364.437 279.352v-69.733l-60.415-34.866v69.732z"/><path stroke="url(#n)" d="M363.765 140.18V70.448l-60.414-34.866v69.732z" opacity=".3"/><path stroke="url(#o)" d="M363.765 139.641l-60.414 34.867" opacity=".5"/></g><path stroke="url(#x)" stroke-linecap="round" stroke-linejoin="round" stroke-width="1.944" d="M63.431 419.832l58.872 34.693 60.324-35.602 60.948-34.322 60.134 35.027 59.585-34.944.032-69.085-59.617-35.569-60.667 34.903-59.26-35.581-.029-68.548 59.856-34.482 60.1-34.744" transform="matrix(-1 0 0 1 426.757 0)"/><ellipse cx="243.576" cy="139.641" fill="#FFF" fill-rule="nonzero" rx="3.358" ry="3.357"/><ellipse cx="181.786" cy="384.684" fill="#FFF" fill-rule="nonzero" rx="2.687" ry="2.685"/><ellipse cx="242.837" cy="418.923" fill="#FFF" fill-rule="nonzero" rx="2.687" ry="2.685"/><ellipse cx="242.837" cy="349.774" fill="#FFF" fill-rule="nonzero" rx="2.687" ry="2.685"/><ellipse cx="303.052" cy="314.739" fill="#FFF" fill-rule="nonzero" rx="2.687" ry="2.685"/><ellipse cx="364.177" cy="279.382" fill="#FFF" fill-rule="nonzero" rx="2.687" ry="2.685"/><ellipse cx="364.177" cy="209.76" fill="#FFF" fill-rule="nonzero" rx="2.687" ry="2.685"/><ellipse cx="424.318" cy="314.739" fill="#FFF" fill-rule="nonzero" rx="2.687" ry="2.685"/><ellipse cx="363.237" cy="139.865" fill="#FFF" fill-rule="nonzero" rx="3.358" ry="3.357"/><ellipse cx="183.13" cy="245.379" fill="#FFF" fill-rule="nonzero" rx="3.358" ry="3.357"/><ellipse cx="422.9" cy="384.684" fill="#FFF" fill-rule="nonzero" rx="2.687" ry="2.685"/><ellipse cx="363.797" cy="349.774" fill="#94C4FF" fill-rule="nonzero" rx="2.687" ry="2.685"/><ellipse cx="483.346" cy="418.923" fill="#C8E1FF" fill-rule="nonzero" rx="2.687" ry="2.685"/><ellipse cx="483.346" cy="349.103" fill="#C8E1FF" fill-rule="nonzero" rx="2.687" ry="2.685"/><ellipse cx="483.346" cy="279.17" fill="#C8E1FF" fill-rule="nonzero" rx="2.687" ry="2.685"/><ellipse cx="303.351" cy="384.684" fill="#FFF" fill-rule="nonzero" rx="2.687" ry="2.685"/><ellipse cx="424.176" cy="454.505" fill="#FFF" fill-rule="nonzero" rx="2.687" ry="2.685"/><ellipse cx="302.724" cy="454.505" fill="#FFF" fill-rule="nonzero" rx="2.687" ry="2.685"/><ellipse cx="363.73" cy="418.923" fill="#FFF" fill-rule="nonzero" rx="2.687" ry="2.685"/><ellipse cx="182.391" cy="454.505" fill="#FFF" fill-rule="nonzero" rx="2.687" ry="2.685"/><path stroke="url(#q)" stroke-width=".778" d="M243.576 139.842v69.488m59.327-102.496v69.488" opacity=".5"/><path stroke="#94C4FF" stroke-width=".778" d="M243.576 210.804v68.346m179.722-103.156v68.345m-240.666 1.276v68.346m120.383-69.253l-59.439 34.442m59.439-103.256l-59.439 34.443"/><path stroke="url(#r)" stroke-width=".778" d="M183.13 245.379l-61.118-35.246m182.383 105.489l-61.117-35.246m121.439 139.679l-61.118-35.246m-60.695-174.34l-61.118-35.246" opacity=".5"/><path stroke="url(#s)" stroke-width=".778" d="M243.576 139.842l60.446-35.111M183.801 245.245l60.447-35.112m120.519-.942l60.446-35.112" opacity=".5"/><path stroke="url(#s)" stroke-width=".778" d="M183.801 139.842l60.447-35.111" opacity=".5" transform="matrix(-1 0 0 1 428.049 0)"/><ellipse cx="303.351" cy="174.551" fill="#FFF" rx="3.358" ry="3.357"/><ellipse cx="303.91" cy="243.924" fill="#FFF" rx="3.358" ry="3.357"/><ellipse cx="183.533" cy="104.798" fill="#FFF" fill-rule="nonzero" rx="3.358" ry="3.357"/><ellipse cx="182.861" cy="175.29" fill="#FFF" fill-rule="nonzero" rx="3.358" ry="3.357"/><ellipse cx="302.791" cy="104.843" fill="#FFF" fill-rule="nonzero" rx="3.358" ry="3.357"/><ellipse cx="243.509" cy="210.804" fill="#FFF" fill-rule="nonzero" rx="3.358" ry="3.357"/><ellipse cx="242.837" cy="279.954" fill="#FFF" fill-rule="nonzero" rx="2.687" ry="2.685"/><ellipse cx="423.522" cy="174.551" fill="#FFF" fill-rule="nonzero" rx="2.687" ry="2.685"/><ellipse cx="182.391" cy="314.864" fill="#FFF" fill-rule="nonzero" rx="2.687" ry="2.685"/><ellipse cx="423.256" cy="245.192" fill="#FFF" fill-rule="nonzero" rx="2.687" ry="2.685"/></g></g></g></g></g></svg>