<svg xmlns="http://www.w3.org/2000/svg" width="150" height="150"><g transform="translate(28 18)" fill="none" fill-rule="evenodd"><path d="M5 78v31h31M5 55V5h85v104H59" stroke="#9EA2AE" stroke-width="2"/><circle cx="5" cy="5" r="4" fill="#2E5BDB" stroke="#FFF" stroke-width="2" transform="matrix(-1 0 0 1 10 0)"/><circle cx="90" cy="5" r="4" fill="#2EDBAF" stroke="#FFF" stroke-width="2"/><circle cx="90" cy="109" r="4" fill="#2E5BDB" stroke="#FFF" stroke-width="2" transform="matrix(1 0 0 -1 0 218)"/><circle cx="5" cy="109" r="4" fill="#2E5BDB" stroke="#FFF" stroke-width="2" transform="rotate(180 5 109)"/><path d="M43 45.5h30m-30-6h19M21 39l6 6 9-9m7 25.5h30m-30 6h30M21 61l6 6 9-9m7 25.5h30m-30 6h30M21 83l6 6 9-9" stroke="#2E5BDB" stroke-width="3"/></g></svg>