<svg xmlns="http://www.w3.org/2000/svg" xmlns:xlink="http://www.w3.org/1999/xlink" width="768" height="380"><defs><linearGradient id="e" x1="50%" x2="50%" y1="0%" y2="100%"><stop offset="0%" stop-color="#C6E4FF" stop-opacity="0"/><stop offset="100%" stop-color="#FFF"/></linearGradient><linearGradient id="f" x1="100%" x2="0%" y1="50%" y2="50%"><stop offset="0%" stop-color="#FFF"/><stop offset="100%" stop-color="#C6E4FF" stop-opacity="0"/></linearGradient><linearGradient id="g" x1="50%" x2="50%" y1="0%" y2="100%"><stop offset="0%" stop-color="#C6E4FF"/><stop offset="100%" stop-color="#FFF"/></linearGradient><linearGradient id="h" x1="50%" x2="50%" y1="0%" y2="100%"><stop offset="0%" stop-color="#94C4FF"/><stop offset="100%" stop-color="#2E5BDB"/></linearGradient><linearGradient id="i" x1="50%" x2="50%" y1="0%" y2="100%"><stop offset="0%" stop-color="#C6E4FF"/><stop offset="100%" stop-color="#FFF"/></linearGradient><linearGradient id="j" x1="84.493%" x2="47.273%" y1="55.42%" y2="37.353%"><stop offset="0%" stop-color="#FFF"/><stop offset="100%" stop-color="#C6E4FF" stop-opacity="0"/></linearGradient><linearGradient id="k" x1="50%" x2="50%" y1="0%" y2="100%"><stop offset="0%" stop-color="#94C4FF"/><stop offset="100%" stop-color="#2E5BDB"/></linearGradient><linearGradient id="l" x1="17.224%" x2="28.103%" y1="95.505%" y2="82.725%"><stop offset="0%" stop-color="#FFF" stop-opacity=".3"/><stop offset="100%" stop-color="#FFF"/></linearGradient><linearGradient id="m" x1="50%" x2="50%" y1="0%" y2="100%"><stop offset="0%" stop-color="#C6E4FF"/><stop offset="100%" stop-color="#FFF"/></linearGradient><linearGradient id="n" x1="50%" x2="50%" y1="0%" y2="100%"><stop offset="0%" stop-color="#C6E4FF"/><stop offset="100%" stop-color="#FFF"/></linearGradient><linearGradient id="o" x1="50%" x2="50%" y1="0%" y2="100%"><stop offset="0%" stop-color="#C6E4FF"/><stop offset="100%" stop-color="#FFF"/></linearGradient><linearGradient id="p" x1="100%" x2="0%" y1="50%" y2="50%"><stop offset="0%" stop-color="#FFF"/><stop offset="100%" stop-color="#C6E4FF" stop-opacity="0"/></linearGradient><linearGradient id="q" x1="100%" x2="0%" y1="50%" y2="50%"><stop offset="0%" stop-color="#C6E4FF" stop-opacity="0"/><stop offset="100%" stop-color="#FFF"/></linearGradient><linearGradient id="r" x1="50%" x2="50%" y1="0%" y2="157.897%"><stop offset="0%" stop-color="#C6E4FF"/><stop offset="100%" stop-color="#FFF"/></linearGradient><linearGradient id="s" x1="100%" x2="0%" y1="50%" y2="50%"><stop offset="0%" stop-color="#C6E4FF" stop-opacity="0"/><stop offset="100%" stop-color="#FFF"/></linearGradient><linearGradient id="t" x1="63.612%" x2="25.359%" y1="39.686%" y2="58.627%"><stop offset="0%" stop-color="#C6E4FF" stop-opacity="0"/><stop offset="0%" stop-color="#C7E4FF" stop-opacity=".028"/><stop offset="100%" stop-color="#FFF"/></linearGradient><linearGradient id="u" x1="50%" x2="50%" y1="0%" y2="100%"><stop offset="0%" stop-color="#C6E4FF"/><stop offset="100%" stop-color="#FFF"/></linearGradient><linearGradient id="v" x1="54.522%" x2="41.814%" y1="19.163%" y2="75.793%"><stop offset="0%" stop-color="#C6E4FF" stop-opacity="0"/><stop offset="0%" stop-color="#C7E4FF" stop-opacity=".028"/><stop offset="100%" stop-color="#FFF"/></linearGradient><linearGradient id="w" x1="50%" x2="50%" y1="0%" y2="100%"><stop offset="0%" stop-color="#C6E4FF"/><stop offset="100%" stop-color="#FFF"/></linearGradient><linearGradient id="x" x1="13.38%" x2="25.534%" y1="95.505%" y2="82.725%"><stop offset="0%" stop-color="#FFF" stop-opacity=".3"/><stop offset="100%" stop-color="#FFF"/></linearGradient><path id="a" d="M0 0h768v380H0z"/><path id="c" d="M0 .497h964v434H0z"/></defs><g fill="none" fill-rule="evenodd"><mask id="b" fill="#fff"><use xlink:href="#a"/></mask><use fill="#D8D8D8" xlink:href="#a"/><g mask="url(#b)"><g transform="translate(-98 -1.497)"><mask id="d" fill="#fff"><use xlink:href="#c"/></mask><use xlink:href="#c"/><g mask="url(#d)" opacity=".12"><g transform="translate(628.106 -51.34)"><path stroke="url(#e)" stroke-width=".7" d="M197.173 0v56.418l-48.777 28.21V28.21z" opacity=".5"/><path stroke="url(#f)" stroke-width=".7" d="M147.828 142.627V86.208L99.051 57.999v56.419zM49.604 424.138v-56.419L.827 339.51v56.418z"/><path stroke="url(#g)" stroke-width=".7" d="M147.184 254.775v56.417l-48.777 28.211v-56.419zm97.707-.027v56.418l-48.777 28.21v-56.419z" opacity=".5"/><path stroke="url(#h)" stroke-width=".7" d="M195.419 395.86l48.777-28.235-48.777-28.209-48.778 28.209z"/><path stroke="url(#h)" stroke-width=".7" d="M98.717 395.86l48.778-28.235-48.778-28.209-48.777 28.209z"/><g stroke="#2E5BDB" stroke-width=".91"><path d="M147.184 480.495l48.777-28.235-48.777-28.209-48.777 28.209zm97.554 0l48.778-28.235-48.778-28.209-48.777 28.209z"/><path d="M49.629 480.495l48.777-28.235-48.777-28.209L.852 452.26z" opacity=".378"/></g><path stroke="url(#f)" stroke-width=".7" d="M98.406 339.403v-56.419l-48.777-28.209v56.418z"/><path stroke="url(#i)" stroke-width=".7" d="M196.048 339.376v-56.419l-48.777-28.209v56.419z" opacity=".5"/><path stroke="url(#j)" stroke-width=".7" d="M146.993 142.167l-48.777-28.209-48.777 28.209 48.777 28.209z"/><path stroke="url(#k)" stroke-width=".7" d="M147.184 367.612v56.418l-48.777 28.21v-56.418zm-98.057 0v56.418L.35 452.24v-56.418z"/><path stroke="url(#k)" stroke-width=".7" d="M195.546 340.026v56.418l-48.777 28.211v-56.419zm-97.605 0v56.418l-48.777 28.211v-56.419z"/><path stroke="url(#f)" stroke-width=".7" d="M98.383 226.447v-56.419l-48.777-28.21v56.419z"/><path stroke="url(#l)" stroke-linecap="round" stroke-linejoin="round" stroke-width="1.75" d="M49.164 380.674l.44-12.946 48.528-28.788 49.125 28.804 48.704-28.804 49.207-27.769 48.551 28.339 48.107-28.272.025-55.895-48.132-28.778-48.981 28.239-48.347-28.788-48.809 28.788-49.019-28.368v-56.26l49.051-28.245.239-57.142 48.803-27.639 48.082 28.128"/><ellipse cx="196.656" cy="112.98" fill="#FFF" fill-rule="nonzero" rx="2.711" ry="2.716"/><ellipse cx="146.769" cy="311.238" fill="#FFF" fill-rule="nonzero" rx="2.169" ry="2.173"/><ellipse cx="98.455" cy="338.94" fill="#FFF" fill-rule="nonzero" rx="2.169" ry="2.173"/><ellipse cx="196.06" cy="338.94" fill="#FFF" fill-rule="nonzero" rx="2.169" ry="2.173"/><ellipse cx="196.06" cy="282.993" fill="#FFF" fill-rule="nonzero" rx="2.169" ry="2.173"/><ellipse cx="147.853" cy="198.53" fill="#FFF" fill-rule="nonzero" rx="2.711" ry="2.716"/><ellipse cx="98.455" cy="282.45" fill="#FFF" fill-rule="nonzero" rx="2.169" ry="2.173"/><ellipse cx="49.652" cy="367.728" fill="#C8E1FF" fill-rule="nonzero" rx="2.169" ry="2.173"/><ellipse cx="147.257" cy="367.728" fill="#FFF" fill-rule="nonzero" rx="2.169" ry="2.173"/><path stroke="url(#m)" stroke-width=".7" d="M196.656 113.143v56.22" opacity=".5"/><path stroke="#94C4FF" stroke-width=".7" d="M196.656 170.556v55.297m-49.204-27.132v55.297m97.193-56.032l-47.989 27.867m47.989-83.542l-47.989 27.867"/><path stroke="url(#n)" stroke-width=".7" d="M147.853 198.53l-49.344-28.517m97.605.272l-49.345-28.517" opacity=".5"/><path stroke="url(#o)" stroke-width=".7" d="M196.656 113.143l48.802-28.408m-97.062 113.686l48.802-28.408" opacity=".5"/><path stroke="url(#p)" stroke-width=".7" d="M49.435 255.152l48.803-28.408"/><path stroke="url(#o)" stroke-width=".7" d="M148.396 113.143l48.802-28.408" opacity=".5" transform="matrix(-1 0 0 1 345.594 0)"/><ellipse cx="148.179" cy="84.789" fill="#2E5BDB" stroke="#FFF" stroke-width="1.4" rx="3.411" ry="3.416"/><ellipse cx="147.637" cy="141.822" fill="#2E5BDB" stroke="#FFF" stroke-width="1.4" rx="3.411" ry="3.416"/><ellipse cx="98.509" cy="170.013" fill="#2E5BDB" stroke="#FFF" stroke-width="1.4" rx="3.411" ry="3.416"/><ellipse cx="196.602" cy="170.556" fill="#FFF" fill-rule="nonzero" rx="2.711" ry="2.716"/><ellipse cx="196.06" cy="226.503" fill="#FFF" fill-rule="nonzero" rx="2.169" ry="2.173"/><ellipse cx="197.289" cy="57.033" fill="#FFF" fill-rule="nonzero" rx="2.169" ry="2.173"/><ellipse cx="147.257" cy="254.748" fill="#FFF" fill-rule="nonzero" rx="2.169" ry="2.173"/></g></g><g mask="url(#d)" opacity=".12"><g transform="translate(-105.438 -32.23)"><g stroke-width=".7"><path stroke="#94C4FF" d="M390.603 226.012l-48.777-28.21-48.777 28.21 48.777 28.209z"/><path stroke="url(#g)" d="M244.891 254.748v56.418l-48.777 28.21v-56.419z" opacity=".5"/><path stroke="url(#h)" d="M195.419 395.86l48.777-28.235-48.777-28.209-48.778 28.209z"/><path stroke="url(#q)" d="M439.381 424.564v-56.419l-48.778-28.209v56.418z" opacity=".3"/><path stroke="url(#r)" d="M390.603 339.535l-48.777-28.21-48.777 28.21 48.777 28.209z"/><path stroke="url(#s)" d="M439.533 254.17l-48.777-28.21-48.777 28.21 48.777 28.209z"/><path stroke="url(#t)" d="M390.603 112.489l-48.777-28.21-48.777 28.21 48.777 28.209z" opacity=".3"/><path stroke="url(#u)" d="M342.471 254.712l-48.777-28.209-48.778 28.209 48.778 28.21z" opacity=".5"/><path stroke="url(#k)" d="M341.942 367.612v56.418l-48.777 28.21v-56.418z"/><path stroke="url(#k)" d="M293.693 339.483v56.418l-48.777 28.21v-56.418z"/><path stroke="url(#q)" d="M439.016 254.205v56.418l-48.777 28.21v-56.418z" opacity=".3"/><path stroke="url(#i)" d="M342.293 254.632v56.418l-48.778 28.211v-56.419z"/><path stroke="#94C4FF" d="M294.236 226.016v-56.419l-48.778-28.209v56.419z"/><path stroke="url(#v)" d="M293.693 113.416V56.998l-48.777-28.21v56.419z" opacity=".3"/><path stroke="url(#w)" d="M293.693 112.98l-48.777 28.21" opacity=".5"/></g><path stroke="url(#x)" stroke-linecap="round" stroke-linejoin="round" stroke-width="1.75" d="M51.212 339.675l47.532 28.069 48.704-28.804 49.207-27.769 48.551 28.339 48.107-28.272.025-55.895-48.132-28.778-48.981 28.239-47.845-28.788-.023-55.46 48.326-27.899 48.523-28.11" transform="matrix(-1 0 0 1 344.55 0)"/><ellipse cx="244.675" cy="254.647" fill="#FFF" fill-rule="nonzero" rx="2.169" ry="2.173"/><ellipse cx="294.026" cy="226.04" fill="#FFF" fill-rule="nonzero" rx="2.169" ry="2.173"/><ellipse cx="294.026" cy="169.711" fill="#FFF" fill-rule="nonzero" rx="2.169" ry="2.173"/><ellipse cx="342.582" cy="254.647" fill="#FFF" fill-rule="nonzero" rx="2.169" ry="2.173"/><ellipse cx="293.267" cy="113.161" fill="#FFF" fill-rule="nonzero" rx="2.711" ry="2.716"/><ellipse cx="341.437" cy="311.238" fill="#FFF" fill-rule="nonzero" rx="2.169" ry="2.173"/><ellipse cx="293.719" cy="282.993" fill="#94C4FF" fill-rule="nonzero" rx="2.169" ry="2.173"/><ellipse cx="390.239" cy="338.94" fill="#C8E1FF" fill-rule="nonzero" rx="2.169" ry="2.173"/><ellipse cx="390.239" cy="282.45" fill="#C8E1FF" fill-rule="nonzero" rx="2.169" ry="2.173"/><ellipse cx="390.239" cy="225.869" fill="#C8E1FF" fill-rule="nonzero" rx="2.169" ry="2.173"/><ellipse cx="244.916" cy="311.238" fill="#FFF" fill-rule="nonzero" rx="2.169" ry="2.173"/><ellipse cx="342.467" cy="367.728" fill="#FFF" fill-rule="nonzero" rx="2.169" ry="2.173"/><ellipse cx="244.41" cy="367.728" fill="#FFF" fill-rule="nonzero" rx="2.169" ry="2.173"/><ellipse cx="293.665" cy="338.94" fill="#FFF" fill-rule="nonzero" rx="2.169" ry="2.173"/><path stroke="url(#m)" stroke-width=".7" d="M244.555 86.437v56.22" opacity=".5"/><path stroke="#94C4FF" stroke-width=".7" d="M341.758 142.392v55.297m-97.113.297l-47.989 27.867m47.989-83.542l-47.989 27.867"/><path stroke="url(#n)" stroke-width=".7" d="M245.76 255.362l-49.345-28.517m98.047 113.01l-49.345-28.516" opacity=".5"/><path stroke="url(#o)" stroke-width=".7" d="M196.656 113.143l48.802-28.408m49.044 84.516l48.803-28.408" opacity=".5"/><ellipse cx="244.916" cy="141.225" fill="#FFF" rx="2.711" ry="2.716"/><ellipse cx="245.368" cy="197.353" fill="#FFF" rx="2.711" ry="2.716"/><ellipse cx="244.464" cy="84.825" fill="#FFF" fill-rule="nonzero" rx="2.711" ry="2.716"/><ellipse cx="341.939" cy="141.225" fill="#FFF" fill-rule="nonzero" rx="2.169" ry="2.173"/><ellipse cx="341.724" cy="198.379" fill="#FFF" fill-rule="nonzero" rx="2.169" ry="2.173"/></g></g></g></g></g></svg>