<svg xmlns="http://www.w3.org/2000/svg" width="216" height="57"><defs><linearGradient id="a" x1="50.15%" x2="49.9%" y1="129.713%" y2="4.769%"><stop offset="0%" stop-color="#FFF" stop-opacity=".8"/><stop offset="100%" stop-color="#FFF"/></linearGradient><linearGradient id="b" x1="0%" x2="100%" y1="50.08%" y2="50.08%"><stop offset="0%" stop-color="#FFF" stop-opacity=".5"/><stop offset="99%" stop-color="#FFF" stop-opacity=".7"/></linearGradient><linearGradient id="c" x1="0%" x2="100%" y1="49.907%" y2="49.907%"><stop offset="0%" stop-color="#FFF" stop-opacity=".8"/><stop offset="100%" stop-color="#FFF"/></linearGradient><linearGradient id="d" x1="50.338%" x2="50.338%" y1="141.706%" y2="2.157%"><stop offset="0%" stop-color="#FFF" stop-opacity=".3"/><stop offset="100%" stop-color="#FFF" stop-opacity=".5"/></linearGradient></defs><g fill="none"><path fill="#FFF" d="M157.503 13.79v-2.256h-13.187v4.09h11.353a1.835 1.835 0 001.834-1.835zm-56.635 16.614v3.37h36.028a1.84 1.84 0 001.84-1.834v-2.132h-37.868v.596zm30.384 5.956h-22.945a1.89 1.89 0 00-1.892 1.872v9.603c0 1.045.847 1.893 1.892 1.893h22.945a1.894 1.894 0 001.893-1.893v-9.603a1.893 1.893 0 00-1.893-1.873zm-3.123 9.227h-16.673V40.5h16.699l-.026 5.087zm-19.485-18.721h22.55a1.834 1.834 0 001.834-1.834v-1.944H111.78v-2.916h19.116a1.84 1.84 0 001.84-1.84v-6.39a1.84 1.84 0 00-1.84-1.84H106.79v3.791h21.145v2.741h-19.31a1.834 1.834 0 00-1.835 1.834v6.564a1.834 1.834 0 001.854 1.834zm68.74-1.348h-6.442V10.102h-4.406v39.425h2.592a1.834 1.834 0 001.834-1.834V29.549h4.607a1.835 1.835 0 001.834-1.84l-.02-2.19zm-22.175 4.569c.544-.7 1.4-1.944 1.439-1.99.038-.045.492-.725.777-1.199a13.8 13.8 0 00.421-.7 38.922 38.922 0 001.53-2.935c.441-.97.826-1.966 1.153-2.98a1.848 1.848 0 00-1.75-2.411h-17.852v4.16h14.023a29.082 29.082 0 01-6.085 8.424 33.887 33.887 0 01-8.716 5.955l-1.296.648 2.022 3.72.415-.169.894-.382a37.323 37.323 0 003.713-1.944 32.795 32.795 0 005.832-4.407l.512-.518c.531.57 1.05 1.095 1.653 1.698a37.465 37.465 0 006.13 4.912l1.296.797 2.592-3.415a39.285 39.285 0 01-8.703-7.264zM84.318 33.58c6.292-.999 11.074-5.833 11.074-11.665-.002-.827-.1-1.651-.292-2.456a11.064 11.064 0 00-3.155-5.436c-5.656-5.278-14.432-5.278-20.088 0a11.058 11.058 0 00-3.156 5.436c-.192.805-.29 1.63-.292 2.456 0 5.832 4.757 10.621 11.016 11.664v5.508H62.96v4.044h36.074a1.834 1.834 0 001.834-1.834v-2.216h-16.55v-5.502zm-2.404-18.793c4.834 0 8.76 3.201 8.76 7.128s-3.926 7.128-8.76 7.128-8.761-3.24-8.761-7.128 3.959-7.134 8.76-7.134v.006zm95.47 24.287v4.05h36.398a1.84 1.84 0 001.84-1.833v-2.217h-38.238zm6.836-5.3h24.047a1.834 1.834 0 001.834-1.834v-2.216h-23.29v-5.1h22.927v-3.953h-22.926v-4.756a1.69 1.69 0 010-.318h22.907v-4.063h-27.34V31.94a1.84 1.84 0 001.84 1.834z"/><path fill="url(#a)" d="M17.146 13.504l-4.342-2.488a8.593 8.593 0 00-4.231-1.115 8.513 8.513 0 00-4.303 1.115A8.681 8.681 0 000 18.52v24.682l17.146-9.901V13.504z"/><path fill="url(#b)" d="M47.09 45.71a8.586 8.586 0 01-8.638-.104L17.146 33.294 0 43.202l21.384 12.312a8.693 8.693 0 008.683 0l17.03-9.804h-.007z"/><path fill="url(#c)" d="M30.06 1.16a8.691 8.691 0 00-8.682 0L4.27 11.016a8.505 8.505 0 014.303-1.16 8.584 8.584 0 014.231 1.16s14.516 8.424 16.674 9.63c.5.283 1.037.5 1.594.647 3.078.79 5.378-.278 13.9-5.184l5.436-3.136L30.06 1.16z"/><path fill="url(#d)" d="M46.008 17.826c-8.521 4.925-10.601 6.383-11.457 9.442a6.671 6.671 0 00-.252 1.691c-.04 2.475 0 14.256 0 14.256l4.16 2.404c.993.593 2.095.98 3.24 1.14a8.588 8.588 0 005.385-1.036l.064-.045a8.68 8.68 0 003.124-3.169c.09-.15.168-.305.246-.46a.194.194 0 000-.059c.071-.149.143-.298.201-.447l.039-.097c.058-.136.11-.279.162-.428l.039-.136c.045-.136.084-.265.123-.395.011-.063.026-.126.045-.188 0-.123.059-.24.084-.363l.04-.246c0-.104.038-.207.051-.311.013-.104 0-.22 0-.33V14.69l-5.294 3.136z"/></g></svg>