<svg xmlns="http://www.w3.org/2000/svg" width="30" height="30" style="background:#2edbaf"><g fill="none" fill-rule="evenodd"><path fill="#2EDBAF" d="M0 0h30v30H0z"/><path fill="#FFF" fill-rule="nonzero" d="M24.48 23.493c.012-.025.026-.051.043-.08.342-.56.297-1.107-.135-1.64-2.05-1.973-4.079-3.398-9.586-3.398-5.409 0-7.512 1.375-9.495 3.293l.008.013c-.504.562-.575 1.14-.213 1.733a.66.66 0 01.065.137c2.236 3.012 5.72 4.949 9.635 4.949 3.94 0 7.444-1.962 9.679-5.007zM15 30C6.716 30 0 23.284 0 15 0 6.716 6.716 0 15 0c8.284 0 15 6.716 15 15 0 8.284-6.716 15-15 15zm-.188-14.25a5.063 5.063 0 10-.003-10.127 5.063 5.063 0 00.004 10.127z" opacity=".9"/></g></svg>