<svg xmlns="http://www.w3.org/2000/svg" xmlns:xlink="http://www.w3.org/1999/xlink" width="2560" height="801"><defs><linearGradient id="c" x1="51.986%" x2="50%" y1="326.182%" y2="-9.259%"><stop offset="0%" stop-color="#94C4FF"/><stop offset="100%" stop-color="#FBFBFC"/></linearGradient><linearGradient id="d" x1="-157.828%" x2="58.61%" y1="2.224%" y2="55.554%"><stop offset="0%" stop-color="#94C4FF"/><stop offset="100%" stop-color="#FBFBFC"/></linearGradient><linearGradient id="e" x1="41.346%" x2="377.027%" y1="49.381%" y2="66.033%"><stop offset="0%" stop-color="#FBFBFC"/><stop offset="100%" stop-color="#94C4FF"/></linearGradient><linearGradient id="f" x1="161.181%" x2="161.181%" y1="104.862%" y2="-230.421%"><stop offset="0%" stop-color="#FFF"/><stop offset="100%" stop-color="#94C4FF"/></linearGradient><path id="a" d="M0 .5h2560v800H0z"/></defs><g fill="none" fill-rule="evenodd"><mask id="b" fill="#fff"><use xlink:href="#a"/></mask><use fill="#FBFBFC" xlink:href="#a"/><g fill-rule="nonzero" mask="url(#b)"><path fill="url(#c)" d="M341.292 268.8l-86.408-49.882c-52.718-29.939-117.372-29.619-169.792.84C32.374 250.808.008 307.423 0 368.606v491.4l341.292-197.092V268.8z" transform="translate(1347 224)"/><path fill="url(#d)" d="M598.346 23.156c-53.47-30.87-119.347-30.87-172.816 0L85.05 219.8c52.42-30.459 117.074-30.779 169.792-.84 0 0 288.932 167.608 331.94 191.618a130.773 130.773 0 0031.668 12.404C659.274 433.492 829.124 405.497 1128 339L598.346 23.156z" transform="translate(1347 224)"/></g><g fill-rule="nonzero" mask="url(#b)"><path fill="url(#e)" d="M937.412 617.846c-53.49 30.358-119.18 29.577-171.934-2.044l-424.2-244.888L0 567.964l425.6 245.672c53.47 30.87 119.347 30.87 172.816 0l339.052-195.79h-.056z" transform="translate(4 -185)"/><path fill="url(#f)" d="M915.67 62.9c-169.638 98-211.008 127.022-227.976 187.936a131.034 131.034 0 00-5.096 33.6c-.714 49.266 0 283.514 0 283.514l86.408 49.882c52.718 29.939 117.372 29.619 169.792-.84 52.686-31.05 85.036-87.637 85.064-148.792V.432L915.67 62.9z" transform="translate(4 -185)"/></g></g></svg>