<svg xmlns="http://www.w3.org/2000/svg" xmlns:xlink="http://www.w3.org/1999/xlink" width="1024" height="450"><defs><linearGradient id="c" x1="51.986%" x2="50%" y1="326.182%" y2="-9.259%"><stop offset="0%" stop-color="#94C4FF"/><stop offset="100%" stop-color="#FBFBFC"/></linearGradient><linearGradient id="d" x1="-157.828%" x2="58.61%" y1="2.224%" y2="55.554%"><stop offset="0%" stop-color="#94C4FF"/><stop offset="100%" stop-color="#FBFBFC"/></linearGradient><linearGradient id="e" x1="41.346%" x2="377.027%" y1="49.381%" y2="66.033%"><stop offset="0%" stop-color="#FBFBFC"/><stop offset="100%" stop-color="#94C4FF"/></linearGradient><linearGradient id="f" x1="161.181%" x2="161.181%" y1="104.862%" y2="-230.421%"><stop offset="0%" stop-color="#FBFBFC"/><stop offset="100%" stop-color="#94C4FF"/></linearGradient><path id="a" d="M0 0h1024v450H0z"/></defs><g fill="none" fill-rule="evenodd"><mask id="b" fill="#fff"><use xlink:href="#a"/></mask><use fill="#FBFBFC" xlink:href="#a"/><g fill-rule="nonzero" mask="url(#b)"><path fill="url(#c)" d="M273.034 215.04l-69.127-39.906c-42.175-23.95-93.898-23.695-135.833.672C25.899 200.646.007 245.94 0 294.885v393.12L273.034 530.33V215.04z" transform="translate(615 131)"/><path fill="url(#d)" d="M478.677 18.525c-42.776-24.697-95.477-24.697-138.253 0L68.04 175.84c41.936-24.367 93.659-24.623 135.834-.672 0 0 231.145 134.086 265.552 153.294a104.586 104.586 0 0025.334 9.924c32.66 8.407 168.54-13.988 407.64-67.186L478.677 18.525z" transform="translate(615 131)"/><path fill="url(#e)" d="M749.93 494.277c-42.793 24.286-95.345 23.662-137.548-1.635l-339.36-195.91L0 454.371l340.48 196.537c42.776 24.696 95.477 24.696 138.253 0l271.241-156.632h-.044z" transform="translate(-393 -226)"/><path fill="url(#f)" d="M732.536 50.32c-135.71 78.4-168.806 101.618-182.38 150.349a104.85 104.85 0 00-4.078 26.88c-.57 39.413 0 226.811 0 226.811l69.127 39.906c42.175 23.95 93.898 23.695 135.833-.672 42.15-24.841 68.03-70.11 68.052-119.034V.346L732.536 50.32z" transform="translate(-393 -226)"/></g></g></svg>