<svg xmlns="http://www.w3.org/2000/svg" xmlns:xlink="http://www.w3.org/1999/xlink" width="360" height="450"><defs><linearGradient id="c" x1="51.986%" x2="50%" y1="326.182%" y2="-9.259%"><stop offset="0%" stop-color="#94C4FF"/><stop offset="100%" stop-color="#FBFBFC"/></linearGradient><linearGradient id="d" x1="-157.828%" x2="58.61%" y1="2.224%" y2="55.554%"><stop offset="0%" stop-color="#94C4FF"/><stop offset="100%" stop-color="#FBFBFC"/></linearGradient><linearGradient id="e" x1="41.346%" x2="377.027%" y1="49.381%" y2="66.033%"><stop offset="0%" stop-color="#FBFBFC"/><stop offset="100%" stop-color="#94C4FF"/></linearGradient><linearGradient id="f" x1="161.181%" x2="161.181%" y1="104.862%" y2="-230.421%"><stop offset="0%" stop-color="#FBFBFC"/><stop offset="100%" stop-color="#94C4FF"/></linearGradient><path id="a" d="M0 0h360v450H0z"/></defs><g fill="none" fill-rule="evenodd"><mask id="b" fill="#fff"><use xlink:href="#a"/></mask><use fill="#FBFBFC" xlink:href="#a"/><g fill-rule="nonzero" mask="url(#b)"><path fill="url(#c)" d="M184.298 145.152l-46.66-26.936a92.037 92.037 0 00-91.688.453A93.299 93.299 0 000 199.047v265.356l184.298-106.43v-212.82z" transform="translate(191 135)"/><path fill="url(#d)" d="M323.107 12.504a93.32 93.32 0 00-93.32 0L45.926 118.692a92.037 92.037 0 0191.688-.454s156.023 90.509 179.247 103.474a70.573 70.573 0 0017.101 6.698c22.045 5.675 113.764-9.441 275.157-45.35L323.107 12.504z" transform="translate(191 135)"/></g><g fill-rule="nonzero" mask="url(#b)"><path fill="url(#e)" d="M506.202 491.317a92.133 92.133 0 01-92.844-1.104L184.29 357.973 0 464.382l229.824 132.662a93.32 93.32 0 0093.32 0l183.089-105.726h-.03z" transform="translate(-401 -261)"/><path fill="url(#f)" d="M494.462 191.646c-91.605 52.92-113.945 68.592-123.107 101.485a70.774 70.774 0 00-2.752 18.144c-.386 26.604 0 153.098 0 153.098l46.66 26.936a92.037 92.037 0 0091.688-.453 93.312 93.312 0 0045.934-80.348V157.913l-58.423 33.733z" transform="translate(-401 -261)"/></g></g></svg>