<svg xmlns="http://www.w3.org/2000/svg" xmlns:xlink="http://www.w3.org/1999/xlink" width="1440" height="701"><defs><linearGradient id="c" x1="51.013%" x2="50%" y1="326.182%" y2="-9.259%"><stop offset="0%" stop-color="#94C4FF"/><stop offset="100%" stop-color="#FBFBFC"/></linearGradient><linearGradient id="d" x1="-157.828%" x2="58.61%" y1="-43.64%" y2="60.886%"><stop offset="0%" stop-color="#94C4FF"/><stop offset="100%" stop-color="#FBFBFC"/></linearGradient><linearGradient id="e" x1="41.346%" x2="377.027%" y1="48.787%" y2="81.425%"><stop offset="0%" stop-color="#FBFBFC"/><stop offset="100%" stop-color="#94C4FF"/></linearGradient><linearGradient id="f" x1="161.181%" x2="161.181%" y1="104.862%" y2="-230.421%"><stop offset="0%" stop-color="#FBFBFC"/><stop offset="100%" stop-color="#94C4FF"/></linearGradient><path id="a" d="M0 0h1440v700H0z"/></defs><g transform="translate(0 .5)" fill="none" fill-rule="evenodd"><mask id="b" fill="#fff"><use xlink:href="#a"/></mask><use fill="#FBFBFC" xlink:href="#a"/><g fill-rule="nonzero" mask="url(#b)"><path fill="url(#c)" d="M341.292 376.32l-86.408-69.835c-52.718-41.914-117.372-41.466-169.792 1.176C32.374 351.131.008 430.393 0 516.048v687.96L341.292 928.08V376.32z" transform="translate(895 144.2)"/><path fill="url(#d)" d="M598.346 32.418c-53.47-43.218-119.347-43.218-172.816 0L85.05 307.72c52.42-42.642 117.074-43.09 169.792-1.176 0 0 288.932 234.651 331.94 268.265 9.971 7.694 20.617 13.532 31.668 17.366C659.274 606.888 829.124 567.696 1128 474.6L598.346 32.418z" transform="translate(895 144.2)"/><path fill="url(#e)" d="M937.412 864.984c-53.49 42.502-119.18 41.408-171.934-2.861l-424.2-342.843L0 795.15l425.6 343.94c53.47 43.22 119.347 43.22 172.816 0l339.052-274.106h-.056z" transform="translate(-448 -428.4)"/><path fill="url(#f)" d="M915.67 88.06c-169.638 137.2-211.008 177.83-227.976 263.11-3.15 15.304-4.863 31.117-5.096 47.04-.714 68.973 0 396.92 0 396.92l86.408 69.835c52.718 41.914 117.372 41.466 169.792-1.176 52.686-43.471 85.036-122.692 85.064-208.309V.605L915.67 88.06z" transform="translate(-448 -428.4)"/></g></g></svg>