<svg xmlns="http://www.w3.org/2000/svg" xmlns:xlink="http://www.w3.org/1999/xlink" width="768" height="450"><defs><linearGradient id="c" x1="51.986%" x2="50%" y1="326.182%" y2="-9.259%"><stop offset="0%" stop-color="#94C4FF"/><stop offset="100%" stop-color="#FBFBFC"/></linearGradient><linearGradient id="d" x1="-157.828%" x2="58.61%" y1="2.224%" y2="55.554%"><stop offset="0%" stop-color="#94C4FF"/><stop offset="100%" stop-color="#FBFBFC"/></linearGradient><linearGradient id="e" x1="41.346%" x2="377.027%" y1="49.381%" y2="66.033%"><stop offset="0%" stop-color="#FBFBFC"/><stop offset="100%" stop-color="#94C4FF"/></linearGradient><linearGradient id="f" x1="161.181%" x2="161.181%" y1="104.862%" y2="-230.421%"><stop offset="0%" stop-color="#FBFBFC"/><stop offset="100%" stop-color="#94C4FF"/></linearGradient><path id="a" d="M0 0h768v450H0z"/></defs><g fill="none" fill-rule="evenodd"><mask id="b" fill="#fff"><use xlink:href="#a"/></mask><use fill="#FBFBFC" xlink:href="#a"/><g fill-rule="nonzero" mask="url(#b)"><path fill="url(#c)" d="M218.427 172.032l-55.301-31.924a109.08 109.08 0 00-108.667.537A110.574 110.574 0 000 235.908v314.496l218.427-126.139V172.032z" transform="translate(437 183)"/><path fill="url(#d)" d="M382.941 14.82c-34.22-19.757-76.381-19.757-110.602 0L54.432 140.672a109.08 109.08 0 01108.667-.538S348.015 247.404 375.54 262.77a83.679 83.679 0 0020.268 7.938c26.127 6.726 134.831-11.19 326.112-53.748L382.941 14.82z" transform="translate(437 183)"/><path fill="url(#e)" d="M599.944 395.421c-34.234 19.43-76.276 18.93-110.038-1.308L218.418 237.385 0 363.497l272.384 157.23c34.22 19.757 76.382 19.757 110.602 0L599.98 395.421h-.036z" transform="translate(-368 -125)"/><path fill="url(#f)" d="M586.029 40.256c-108.569 62.72-135.045 81.294-145.905 120.279a83.86 83.86 0 00-3.261 21.504c-.457 31.53 0 181.449 0 181.449l55.3 31.924a109.082 109.082 0 00108.668-.537 110.592 110.592 0 0054.44-95.227V.276l-69.242 39.98z" transform="translate(-368 -125)"/></g></g></svg>