<svg xmlns="http://www.w3.org/2000/svg" width="116" height="31"><defs><linearGradient id="a" x1="50%" x2="50%" y1="100%" y2="-.057%"><stop offset="0%" stop-color="#2E5BDB"/><stop offset="100%" stop-color="#1630AD"/></linearGradient><linearGradient id="b" x1="0%" x2="100%" y1="50.08%" y2="50.08%"><stop offset="0%" stop-color="#0094FF"/><stop offset="100%" stop-color="#2E76E5"/></linearGradient><linearGradient id="c" x1="0%" x2="100%" y1="49.907%" y2="49.907%"><stop offset="0%" stop-color="#2E76E5"/><stop offset="100%" stop-color="#2E5BDB"/></linearGradient><linearGradient id="d" x1="49.937%" x2="49.937%" y1="139.992%" y2="3.165%"><stop offset="0%" stop-color="#FFF"/><stop offset="100%" stop-color="#94C4FF"/></linearGradient></defs><g fill="none"><path d="M83.974 7.58V6.393h-6.998v2.152h6.025a.969.969 0 00.973-.964zm-30.057 8.74v1.773h19.121a.973.973 0 00.977-.965v-1.121H53.917v.313zm16.126 3.133H57.865a1 1 0 00-1.004.986v5.052a1 1 0 001.004.995h12.178a1 1 0 001.004-.995v-5.052a1 1 0 00-1.004-.986zm-1.658 4.855h-8.848v-2.676h8.862l-.014 2.676zm-10.341-9.849h11.968a.97.97 0 00.973-.965v-1.022H59.708v-1.535h10.145c.54 0 .977-.433.977-.968V6.608a.972.972 0 00-.977-.968H57.06v1.994h11.222v1.442H58.034a.97.97 0 00-.974.965v3.453c0 .258.104.505.29.686a.98.98 0 00.694.28zm36.481-.709h-3.419V5.64h-2.338v20.74h1.376a.968.968 0 00.973-.964V15.87h2.445a.963.963 0 00.973-.968l-.01-1.152zm-11.768 2.403c.288-.368.742-1.022.763-1.046.02-.024.261-.382.413-.63.075-.12.154-.246.223-.369.29-.501.568-1.023.812-1.544.234-.511.439-1.035.612-1.569a.967.967 0 00-.14-.867.979.979 0 00-.789-.4h-9.474v2.187h7.442a15.31 15.31 0 01-3.23 4.432 17.984 17.984 0 01-4.625 3.133l-.687.34 1.073 1.957.22-.088.474-.201a19.752 19.752 0 001.97-1.023 17.44 17.44 0 003.096-2.318l.272-.273c.282.3.557.576.876.893.99.972 2.081 1.838 3.254 2.584l.688.42 1.375-1.797a20.792 20.792 0 01-4.618-3.822zm-37.623 1.838c3.34-.525 5.877-3.068 5.877-6.136 0-.436-.053-.87-.155-1.293a5.812 5.812 0 00-1.674-2.86c-3.002-2.776-7.66-2.776-10.661 0a5.813 5.813 0 00-1.675 2.86 5.577 5.577 0 00-.155 1.293c0 3.068 2.524 5.587 5.847 6.136v2.898h-8.739v2.127h19.145a.97.97 0 00.973-.965v-1.166h-8.783v-2.894zm-1.276-9.886c2.566 0 4.65 1.684 4.65 3.75 0 2.065-2.084 3.75-4.65 3.75-2.565 0-4.65-1.705-4.65-3.75 0-2.046 2.102-3.754 4.65-3.754v.004zm50.667 12.777v2.13h19.317c.538 0 .974-.43.976-.964v-1.166H94.525zm3.628-2.789h12.762a.969.969 0 00.973-.965v-1.165h-12.36V13.28h12.168V11.2H99.529V8.698a.777.777 0 010-.167h12.156V6.393H97.176v10.735a.973.973 0 00.977.965z" fill="#1C2029"/><path fill="url(#a)" d="M9.1 7.105l-2.305-1.31a4.588 4.588 0 00-2.245-.586 4.551 4.551 0 00-2.284.586A4.565 4.565 0 000 9.743v12.985l9.1-5.209V7.105z" transform="translate(.386 .325)"/><path fill="url(#b)" d="M24.991 24.048a4.59 4.59 0 01-4.584-.055L9.1 17.516 0 22.728l11.349 6.478a4.653 4.653 0 004.608 0l9.038-5.158h-.004z" transform="translate(.386 .325)"/><path fill="url(#c)" d="M15.953.61a4.653 4.653 0 00-4.608 0L2.266 5.795c.693-.4 1.54-.586 2.284-.586.774.028 1.563.194 2.245.586 0 0 7.398 4.253 8.543 4.887.266.15.55.264.846.341 1.633.416 2.854-.146 7.376-2.727l2.886-1.65L15.953.61z" transform="translate(.386 .325)"/><path fill="url(#d)" d="M24.417 9.76c-4.522 2.59-5.626 3.357-6.08 4.966a3.45 3.45 0 00-.134.89c-.021 1.303 0 7.12 0 7.12l2.304 1.319a4.567 4.567 0 002.245.586 4.53 4.53 0 002.28-.61 4.561 4.561 0 002.27-3.934V8.109l-2.885 1.65z" transform="translate(.386 .325)"/></g></svg>